<svg width="43" height="19" viewBox="0 0 43 19" fill="none" xmlns="http://www.w3.org/2000/svg">
<path fill-rule="evenodd" clip-rule="evenodd" d="M8.00725 2.90525C7.515 3.49175 6.72742 3.95434 5.93983 3.88825C5.84138 3.09525 6.22697 2.25267 6.67819 1.73226C7.17043 1.12924 8.03186 0.699699 8.7292 0.666656C8.81124 1.49271 8.49129 2.30224 8.00725 2.90525ZM8.72094 4.0452C8.02708 4.00499 7.39398 4.2553 6.8826 4.45749C6.55351 4.5876 6.27484 4.69778 6.06283 4.69778C5.8249 4.69778 5.53473 4.58171 5.20892 4.45138C4.78201 4.28062 4.29393 4.08539 3.7821 4.09476C2.60892 4.11128 1.51778 4.78038 0.918887 5.84599C-0.31172 7.97719 0.598929 11.1327 1.78852 12.8674C2.371 13.7265 3.06835 14.6682 3.9872 14.6352C4.39144 14.6198 4.68223 14.4956 4.98317 14.367C5.32963 14.219 5.68954 14.0652 6.25152 14.0652C6.79401 14.0652 7.13819 14.2149 7.46857 14.3587C7.78272 14.4954 8.08439 14.6267 8.53224 14.6186C9.48391 14.6021 10.0828 13.7595 10.6653 12.9005C11.2939 11.9784 11.5701 11.0786 11.612 10.942L11.617 10.9262C11.616 10.9252 11.6082 10.9216 11.5945 10.9153C11.3844 10.8184 9.77825 10.0781 9.76285 8.09284C9.74738 6.42651 11.0368 5.58225 11.2397 5.44935C11.2521 5.44126 11.2604 5.43581 11.2642 5.43296C10.4438 4.21041 9.16395 4.07824 8.72094 4.0452ZM15.3089 14.5278V1.64966H20.1082C22.5858 1.64966 24.3169 3.36784 24.3169 5.87903C24.3169 8.39022 22.553 10.1249 20.0426 10.1249H17.2942V14.5278H15.3089ZM17.2941 3.33479H19.583C21.3058 3.33479 22.2903 4.25997 22.2903 5.88729C22.2903 7.5146 21.3058 8.44804 19.5748 8.44804H17.2941V3.33479ZM30.872 12.9831C30.347 13.9908 29.1902 14.6269 27.9432 14.6269C26.0973 14.6269 24.8092 13.52 24.8092 11.8514C24.8092 10.1993 26.0562 9.24932 28.3616 9.10889L30.8392 8.9602V8.2498C30.8392 7.20072 30.1583 6.63074 28.9441 6.63074C27.9432 6.63074 27.213 7.15115 27.0653 7.94416H25.2769C25.3343 6.27554 26.8931 5.06125 29.0015 5.06125C31.274 5.06125 32.7508 6.25902 32.7508 8.11763V14.5278H30.913V12.9831H30.872ZM28.4763 13.0987C27.418 13.0987 26.7452 12.5866 26.7452 11.8018C26.7452 10.9923 27.3934 10.5214 28.6322 10.4471L30.8391 10.3067V11.0336C30.8391 12.2396 29.8218 13.0987 28.4763 13.0987ZM38.8463 15.0317C38.0505 17.2868 37.1398 18.0302 35.2037 18.0302C35.056 18.0302 34.5638 18.0137 34.4489 17.9807V16.436C34.572 16.4525 34.8755 16.469 35.0314 16.469C35.9092 16.469 36.4015 16.0973 36.705 15.1308L36.8855 14.5608L33.5218 5.18517H35.5975L37.9356 12.7931H37.9767L40.3148 5.18517H42.333L38.8463 15.0317Z" fill="black"/>
</svg>
