<svg viewBox="0 0 99 32" fill="none" xmlns="http://www.w3.org/2000/svg">
  <path d="M34.6992 3.39135C34.6992 4.86584 33.5039 6.06152 32.0284 6.06152C30.5538 6.06152 29.3584 4.86584 29.3584 3.39135C29.3584 1.91644 30.5538 0.720755 32.0284 0.720755C33.5039 0.720755 34.6992 1.91644 34.6992 3.39135Z" fill="#FF6A01" /><circle cx="24.7495" cy="16.0151" r="14.648" stroke="#FF6A01" stroke-width="1.51531" /><path fill-rule="evenodd" clip-rule="evenodd" d="M0.995517 18.1116C1.65934 19.1983 2.57645 20.0496 3.7464 20.6655C4.91635 21.2818 6.22682 21.5897 7.67737 21.5897C8.85437 21.5897 9.93182 21.391 10.9106 20.9935C11.8889 20.596 12.7135 20.0197 13.384 19.2644L11.6599 17.6744C10.6199 18.7744 9.34024 19.3237 7.82097 19.3237C6.83603 19.3237 5.95328 19.1151 5.17316 18.698C4.39305 18.2805 3.78384 17.7009 3.34599 16.9587C2.90814 16.2166 2.68922 15.3756 2.68922 14.4347C2.68922 13.4938 2.90814 12.6524 3.34599 11.9102C3.78384 11.1681 4.39305 10.5885 5.17316 10.1714C5.95328 9.75386 6.83603 9.5453 7.82097 9.5453C9.34024 9.5453 10.6199 10.0887 11.6599 11.175L13.384 9.60458C12.7135 8.84925 11.8925 8.27305 10.9207 7.87555C9.949 7.47805 8.87507 7.2793 7.69807 7.2793C6.24709 7.2793 4.93706 7.58723 3.76711 8.20353C2.59715 8.81982 1.67652 9.67112 1.00609 10.7578C0.335216 11.8441 0 13.0699 0 14.4347C0 15.7995 0.331692 17.0253 0.995517 18.1116ZM21.4358 18.2517C21.2387 18.7634 20.9004 19.1569 20.4207 19.4315C19.9406 19.7065 19.3921 19.844 18.7745 19.844C18.1439 19.844 17.6511 19.7164 17.2962 19.4603C16.9414 19.2047 16.7641 18.8593 16.7641 18.4242C16.7641 17.5164 17.4739 17.0624 18.8929 17.0624H21.4358V18.2517ZM23.8996 15.4507C23.8996 13.9929 23.4885 12.9024 22.6675 12.1799C21.8465 11.4575 20.6601 11.0956 19.1099 11.0956C18.2424 11.0956 17.421 11.2047 16.6461 11.4221C15.8704 11.6394 15.2072 11.9527 14.6552 12.3619L15.6208 14.1078C16.0151 13.7883 16.4981 13.5389 17.0699 13.3594C17.6414 13.1807 18.223 13.091 18.8143 13.091C19.6814 13.091 20.3349 13.2828 20.7756 13.6665C21.2155 14.0502 21.4358 14.6006 21.4358 15.3165V15.47H18.7157C17.2044 15.47 16.0971 15.7483 15.3941 16.3045C14.6912 16.8606 14.3397 17.5996 14.3397 18.5205C14.3397 19.1088 14.5004 19.6365 14.8227 20.1029C15.1446 20.5702 15.6014 20.9345 16.1927 21.1968C16.784 21.4586 17.4739 21.5899 18.2623 21.5899C19.0507 21.5899 19.7241 21.4713 20.2828 21.2346C20.8411 20.9983 21.2713 20.6562 21.5737 20.2083V21.4557H23.8996V15.4507ZM32.9796 11.0957V13.4085C32.7651 13.3697 32.5705 13.3501 32.3962 13.3501C31.4175 13.3501 30.6532 13.6253 30.1039 14.1762C29.5542 14.7271 29.2793 15.5203 29.2793 16.5566V21.59H26.7656V11.2125H29.1589V12.7283C29.8825 11.6399 31.156 11.0957 32.9796 11.0957ZM36.4341 15.5082C36.5551 14.7535 36.8938 14.1496 37.4512 13.6951C38.0082 13.2414 38.6896 13.0142 39.495 13.0142C40.3138 13.0142 40.9982 13.2443 41.5487 13.7046C42.0992 14.1652 42.428 14.7667 42.5356 15.5082H36.4341ZM36.4544 17.1006H44.8913C44.9181 16.7934 44.9315 16.5571 44.9315 16.3908C44.9315 15.3418 44.6999 14.418 44.2371 13.6185C43.7739 12.8194 43.1297 12.1986 42.304 11.7573C41.4783 11.3164 40.5419 11.0957 39.495 11.0957C38.4342 11.0957 37.4815 11.3192 36.6359 11.7672C35.7898 12.2151 35.1288 12.8384 34.6522 13.6375C34.1756 14.4369 33.9375 15.3357 33.9375 16.3332C33.9375 17.3439 34.1825 18.2488 34.6725 19.0478C35.1625 19.8473 35.8573 20.4706 36.7564 20.9185C37.6556 21.3665 38.6961 21.59 39.8778 21.59C40.8038 21.59 41.636 21.4492 42.3744 21.1676C43.1128 20.8868 43.7238 20.4706 44.2069 19.921L42.8579 18.4435C42.0927 19.1853 41.1192 19.5563 39.9379 19.5563C39.0119 19.5563 38.2363 19.3356 37.6124 18.8943C36.988 18.4534 36.6022 17.8552 36.4544 17.1006ZM49.7262 13.6951C49.193 14.1496 48.869 14.7535 48.7533 15.5082H54.5895C54.4866 14.7667 54.172 14.1652 53.6455 13.7046C53.1189 13.2443 52.4643 13.0142 51.6811 13.0142C50.9107 13.0142 50.2589 13.2414 49.7262 13.6951ZM56.8428 17.1006H48.7727C48.914 17.8552 49.2831 18.4534 49.8803 18.8943C50.4771 19.3356 51.219 19.5563 52.1047 19.5563C53.2347 19.5563 54.1658 19.1853 54.8978 18.4435L56.1881 19.921C55.726 20.4706 55.1416 20.8868 54.4353 21.1676C53.729 21.4492 52.933 21.59 52.0473 21.59C50.9169 21.59 49.9217 21.3665 49.0616 20.9185C48.2015 20.4706 47.5369 19.8473 47.0683 19.0478C46.5996 18.2488 46.3652 17.3439 46.3652 16.3332C46.3652 15.3357 46.593 14.4369 47.0488 13.6375C47.5047 12.8384 48.137 12.2151 48.9463 11.7672C49.7551 11.3192 50.6664 11.0957 51.6811 11.0957C52.6825 11.0957 53.5781 11.3164 54.3679 11.7573C55.1578 12.1986 55.774 12.8194 56.217 13.6185C56.6597 14.418 56.8812 15.3418 56.8812 16.3908C56.8812 16.5571 56.8684 16.7934 56.8428 17.1006ZM65.0075 13.4084V11.0956C63.3242 11.0956 62.1487 11.6398 61.4807 12.7282V11.2124H59.2716V21.5899H61.5918V16.5565C61.5918 15.5202 61.8456 14.727 62.3531 14.1761C62.8601 13.6252 63.5656 13.35 64.469 13.35C64.6299 13.35 64.8096 13.3696 65.0075 13.4084ZM76.9593 11.0957V21.4543H74.5573V20.1352C74.1536 20.601 73.6491 20.9598 73.0436 21.212C72.4381 21.4643 71.7854 21.59 71.0859 21.59C69.6458 21.59 68.5123 21.2058 67.6847 20.4357C66.8574 19.6669 66.4434 18.5255 66.4434 17.012V11.0957H68.9662V16.6823C68.9662 17.6135 69.185 18.309 69.6224 18.7678C70.0594 19.2269 70.6822 19.4563 71.4896 19.4563C72.3909 19.4563 73.1072 19.1882 73.6391 18.6512C74.1705 18.1147 74.4365 17.3421 74.4365 16.3335V11.0957H76.9593ZM97.9888 15.6432C97.9888 14.1273 97.5991 12.9905 96.8201 12.2328C96.0411 11.4747 94.9846 11.0956 93.6515 11.0956C92.8194 11.0956 92.0603 11.2482 91.374 11.5527C90.6872 11.8571 90.1263 12.2812 89.6907 12.8254C89.3341 12.2553 88.8488 11.8246 88.2347 11.5331C87.621 11.2416 86.9177 11.0956 86.1255 11.0956C85.3992 11.0956 84.7392 11.219 84.1451 11.4651C83.551 11.7115 83.0559 12.0677 82.6598 12.5339V11.2124H80.3028V21.5899H82.7784V16.3238C82.7784 15.3129 83.0261 14.5423 83.5212 14.011C84.0163 13.4797 84.6865 13.2141 85.5314 13.2141C86.2972 13.2141 86.8849 13.4443 87.2938 13.9038C87.703 14.3642 87.9079 15.0477 87.9079 15.9543V21.5899H90.3834V16.3238C90.3834 15.3259 90.6341 14.5585 91.136 14.0206C91.6379 13.4835 92.3047 13.2141 93.1364 13.2141C93.9022 13.2141 94.4895 13.4443 94.8988 13.9038C95.308 14.3642 95.5129 15.0477 95.5129 15.9543V21.5899H97.9888V15.6432Z" fill="black" />
</svg>
