<svg width="124" height="40" viewBox="0 0 124 40" fill="none" xmlns="http://www.w3.org/2000/svg">
<rect width="124" height="40" rx="8" fill="black"/>
<g clip-path="url(#clip0_5643_24411)">
<path d="M40.9393 6.66562C33.4993 6.66562 27.4674 12.6758 27.4674 20.0904C27.4674 27.505 33.4993 33.5151 40.9393 33.5151C48.3794 33.5151 54.4113 27.505 54.4113 20.0904C54.4113 12.6758 48.3794 6.66562 40.9393 6.66562ZM28.2893 20.0904C28.2893 13.1292 33.9526 7.48538 40.9393 7.48538C47.9261 7.48538 53.5893 13.1292 53.5893 20.0904C53.5893 27.0516 47.9261 32.6954 40.9393 32.6954C33.9526 32.6954 28.2893 27.0516 28.2893 20.0904Z" fill="#FF9F00" stroke="#FF9F01" stroke-width="0.2" stroke-miterlimit="10"/>
<path d="M49.4395 9.34883C49.4395 10.6036 48.4186 11.6211 47.1586 11.6211C45.8993 11.6211 44.8785 10.6036 44.8785 9.34883C44.8785 8.09372 45.8993 7.07622 47.1586 7.07622C48.4186 7.07622 49.4395 8.09372 49.4395 9.34883Z" fill="#FF9F00"/>
<path fill-rule="evenodd" clip-rule="evenodd" d="M20.8635 21.8298C21.4394 22.7711 22.2349 23.5084 23.2498 24.0419C24.2646 24.5757 25.4014 24.8424 26.6596 24.8424C27.6806 24.8424 28.6152 24.6702 29.4643 24.3259C30.3129 23.9816 31.0282 23.4826 31.6098 22.8283L30.1142 21.4511C29.2121 22.4039 28.1021 22.8797 26.7842 22.8797C25.9298 22.8797 25.1641 22.699 24.4874 22.3377C23.8107 21.9761 23.2822 21.474 22.9024 20.8312C22.5226 20.1884 22.3327 19.4599 22.3327 18.645C22.3327 17.8301 22.5226 17.1012 22.9024 16.4584C23.2822 15.8156 23.8107 15.3136 24.4874 14.9523C25.1641 14.5906 25.9298 14.41 26.7842 14.41C28.1021 14.41 29.2121 14.8806 30.1142 15.8215L31.6098 14.4613C31.0282 13.8071 30.316 13.308 29.473 12.9637C28.6301 12.6194 27.6986 12.4473 26.6776 12.4473C25.419 12.4473 24.2826 12.714 23.2677 13.2478C22.2529 13.7816 21.4543 14.519 20.8727 15.4602C20.2908 16.4012 20 17.4629 20 18.645C20 19.8272 20.2877 20.8889 20.8635 21.8298ZM38.5945 21.9503C38.4235 22.3935 38.13 22.7344 37.7139 22.9722C37.2975 23.2104 36.8216 23.3295 36.2859 23.3295C35.7389 23.3295 35.3114 23.2189 35.0036 22.9972C34.6958 22.7757 34.542 22.4766 34.542 22.0997C34.542 21.3134 35.1577 20.9201 36.3886 20.9201H38.5945V21.9503ZM40.7316 19.5241C40.7316 18.2615 40.375 17.317 39.6629 16.6912C38.9507 16.0654 37.9216 15.752 36.5769 15.752C35.8244 15.752 35.1118 15.8464 34.4397 16.0347C33.7668 16.223 33.1915 16.4943 32.7127 16.8488L33.5503 18.361C33.8923 18.0843 34.3113 17.8682 34.8073 17.7127C35.303 17.558 35.8075 17.4803 36.3204 17.4803C37.0725 17.4803 37.6394 17.6464 38.0217 17.9788C38.4033 18.3111 38.5945 18.7878 38.5945 19.4079V19.5409H36.2349C34.924 19.5409 33.9634 19.7819 33.3536 20.2637C32.7439 20.7454 32.439 21.3854 32.439 22.1831C32.439 22.6926 32.5784 23.1498 32.858 23.5538C33.1372 23.9585 33.5334 24.274 34.0464 24.5012C34.5593 24.728 35.1577 24.8417 35.8416 24.8417C36.5255 24.8417 37.1096 24.739 37.5943 24.534C38.0786 24.3293 38.4517 24.033 38.7141 23.645V24.7255H40.7316V19.5241ZM48.61 15.752V17.7552C48.4239 17.7216 48.2551 17.7046 48.1039 17.7046C47.2549 17.7046 46.592 17.943 46.1155 18.4202C45.6386 18.8973 45.4002 19.5844 45.4002 20.4819V24.8417H43.2197V15.8531H45.2957V17.1661C45.9235 16.2233 47.0281 15.752 48.61 15.752ZM51.6046 19.5739C51.7095 18.9202 52.0034 18.3971 52.4869 18.0034C52.97 17.6105 53.5611 17.4136 54.2597 17.4136C54.97 17.4136 55.5637 17.613 56.0412 18.0116C56.5187 18.4107 56.8039 18.9316 56.8972 19.5739H51.6046ZM51.6222 20.9531H58.9407C58.9639 20.6871 58.9756 20.4824 58.9756 20.3384C58.9756 19.4298 58.7747 18.6296 58.3732 17.9371C57.9714 17.245 57.4126 16.7072 56.6964 16.325C55.9801 15.9431 55.1679 15.752 54.2597 15.752C53.3396 15.752 52.5131 15.9456 51.7796 16.3335C51.0458 16.7215 50.4723 17.2614 50.0589 17.9535C49.6455 18.646 49.439 19.4244 49.439 20.2885C49.439 21.1639 49.6515 21.9476 50.0765 22.6398C50.5015 23.3323 51.1042 23.8721 51.8842 24.2601C52.6642 24.6481 53.5667 24.8417 54.5918 24.8417C55.395 24.8417 56.1169 24.7198 56.7574 24.4758C57.398 24.2327 57.928 23.8721 58.347 23.3961L57.1769 22.1163C56.5131 22.7589 55.6686 23.0802 54.6439 23.0802C53.8407 23.0802 53.1679 22.889 52.6267 22.5068C52.0851 22.1249 51.7504 21.6068 51.6222 20.9531ZM63.1346 18.0034C62.6722 18.3971 62.3911 18.9202 62.2907 19.5739H67.3532C67.264 18.9316 66.9911 18.4107 66.5344 18.0116C66.0777 17.613 65.5098 17.4136 64.8304 17.4136C64.1621 17.4136 63.5968 17.6105 63.1346 18.0034ZM69.3078 20.9531H62.3076C62.4302 21.6068 62.7503 22.1249 63.2684 22.5068C63.7861 22.889 64.4296 23.0802 65.1979 23.0802C66.178 23.0802 66.9858 22.7589 67.6207 22.1163L68.74 23.3961C68.3391 23.8721 67.8322 24.2327 67.2195 24.4758C66.6068 24.7198 65.9163 24.8417 65.148 24.8417C64.1675 24.8417 63.3042 24.6481 62.5582 24.2601C61.8121 23.8721 61.2356 23.3323 60.8291 22.6398C60.4225 21.9476 60.2192 21.1639 60.2192 20.2885C60.2192 19.4244 60.4168 18.646 60.8122 17.9535C61.2077 17.2614 61.7562 16.7215 62.4581 16.3335C63.1597 15.9456 63.9503 15.752 64.8304 15.752C65.6991 15.752 66.476 15.9431 67.1611 16.325C67.8462 16.7072 68.3807 17.245 68.7651 17.9371C69.149 18.6296 69.3412 19.4298 69.3412 20.3384C69.3412 20.4824 69.3301 20.6871 69.3078 20.9531ZM76.3902 17.7552V15.752C74.93 15.752 73.9103 16.2233 73.3309 17.1661V15.8531H71.4146V24.8417H73.4273V20.4819C73.4273 19.5844 73.6474 18.8973 74.0876 18.4202C74.5274 17.943 75.1393 17.7046 75.923 17.7046C76.0626 17.7046 76.2184 17.7216 76.3902 17.7552ZM86.7562 15.752V24.7242H84.6726V23.5816C84.3225 23.985 83.8848 24.2958 83.3595 24.5143C82.8343 24.7328 82.2681 24.8417 81.6614 24.8417C80.4122 24.8417 79.429 24.5089 78.711 23.8419C77.9934 23.176 77.6343 22.1874 77.6343 20.8764V15.752H79.8227V20.5909C79.8227 21.3974 80.0124 21.9999 80.3919 22.3972C80.771 22.7949 81.3112 22.9935 82.0115 22.9935C82.7934 22.9935 83.4148 22.7614 83.8761 22.2962C84.3371 21.8315 84.5678 21.1623 84.5678 20.2887V15.752H86.7562ZM105 19.6909C105 18.3779 104.662 17.3933 103.986 16.737C103.31 16.0803 102.394 15.752 101.237 15.752C100.515 15.752 99.8571 15.8842 99.2617 16.1478C98.666 16.4115 98.1794 16.7789 97.8015 17.2502C97.4922 16.7565 97.0713 16.3833 96.5386 16.1309C96.0062 15.8784 95.3961 15.752 94.709 15.752C94.079 15.752 93.5065 15.8589 92.9911 16.072C92.4757 16.2855 92.0463 16.5939 91.7027 16.9978V15.8531H89.6582V24.8417H91.8055V20.2804C91.8055 19.4048 92.0205 18.7373 92.4499 18.2771C92.8794 17.817 93.4608 17.5869 94.1936 17.5869C94.8579 17.5869 95.3678 17.7863 95.7224 18.1843C96.0774 18.5831 96.2551 19.1751 96.2551 19.9604V24.8417H98.4024V20.2804C98.4024 19.416 98.6199 18.7514 99.0553 18.2855C99.4907 17.8202 100.069 17.5869 100.79 17.5869C101.455 17.5869 101.964 17.7863 102.319 18.1843C102.674 18.5831 102.852 19.1751 102.852 19.9604V24.8417H105V19.6909Z" fill="white"/>
</g>
<defs>
<clipPath id="clip0_5643_24411">
<rect x="20" y="6" width="85" height="28" rx="8" fill="white"/>
</clipPath>
</defs>
</svg>
