<svg width="41" height="18" viewBox="0 0 41 18" fill="none" xmlns="http://www.w3.org/2000/svg">
<path fill-rule="evenodd" clip-rule="evenodd" d="M18.7633 13.88V8.98888H21.2876C22.3221 8.98888 23.1952 8.64227 23.9069 7.95868L24.0777 7.78537C25.3779 6.37004 25.2925 4.1652 23.9069 2.85577C23.2141 2.16255 22.2651 1.78705 21.2876 1.80631H17.2354V13.88H18.7633ZM18.7634 7.50606V3.28894H21.3262C21.8767 3.28894 22.3987 3.50076 22.7879 3.88589C23.6137 4.69465 23.6327 6.04259 22.8354 6.88023C22.4462 7.29424 21.8957 7.52532 21.3262 7.50606H18.7634ZM31.2049 6.26409C30.5501 5.65751 29.658 5.34941 28.5287 5.34941C27.0767 5.34941 25.9853 5.88859 25.2641 6.95731L26.6117 7.81421C27.1051 7.08248 27.7789 6.71661 28.6331 6.71661C29.174 6.71661 29.696 6.9188 30.104 7.28467C30.5026 7.63128 30.7304 8.13194 30.7304 8.66149V9.01773C30.142 8.69037 29.4018 8.51707 28.4907 8.51707C27.4278 8.51707 26.5737 8.7674 25.9379 9.27769C25.302 9.78798 24.9794 10.4619 24.9794 11.3188C24.9604 12.0987 25.2925 12.8401 25.8809 13.3408C26.4788 13.8799 27.238 14.1495 28.1301 14.1495C29.1835 14.1495 30.0186 13.6777 30.6545 12.7342H30.7209V13.8799H32.1824V8.78665C32.1824 7.71793 31.8597 6.87066 31.2049 6.26409ZM27.0579 12.3587C26.7447 12.1276 26.5549 11.7521 26.5549 11.3478C26.5549 10.8952 26.7637 10.5197 27.1718 10.2213C27.5895 9.9228 28.1115 9.76875 28.7285 9.76875C29.5827 9.75912 30.2471 9.95168 30.7217 10.3368C30.7217 10.9915 30.4654 11.5596 29.9624 12.041C29.5068 12.5031 28.8898 12.7631 28.2444 12.7631C27.8173 12.7727 27.3996 12.6283 27.0579 12.3587ZM35.466 17.5097L40.5717 5.619H38.9109L36.5479 11.5499H36.5194L34.0994 5.619H32.4386L35.7887 13.3504L33.8906 17.5097H35.466Z" fill="#3C4043"/>
<path d="M13.4884 7.92981C13.4884 7.45804 13.4504 6.98626 13.3745 6.52411H6.93066V9.1911H10.6223C10.4705 10.048 9.977 10.8183 9.25575 11.2997V13.0327H11.4575C12.7481 11.8292 13.4884 10.048 13.4884 7.92981Z" fill="#4285F4"/>
<path d="M6.93126 14.708C8.77235 14.708 10.3287 14.0918 11.4581 13.0327L9.25635 11.2997C8.63949 11.7233 7.85181 11.964 6.93126 11.964C5.14712 11.964 3.63818 10.7412 3.09725 9.10446H0.829102V10.8953C1.9869 13.2349 4.34994 14.708 6.93126 14.708Z" fill="#34A853"/>
<path d="M3.09744 9.10449C2.81269 8.24758 2.81269 7.31366 3.09744 6.44713V4.66592H0.828934C-0.148707 6.62043 -0.148707 8.93118 0.828934 10.8857L3.09744 9.10449Z" fill="#FBBC04"/>
<path d="M6.93126 3.58754C7.90875 3.56829 8.84827 3.94378 9.55054 4.62738L11.5055 2.64399C10.2623 1.46936 8.63 0.824272 6.93126 0.843528C4.34994 0.843528 1.9869 2.32626 0.829102 4.66589L3.09725 6.45672C3.63818 4.81031 5.14712 3.58754 6.93126 3.58754Z" fill="#EA4335"/>
</svg>
