<svg width="38" height="23" viewBox="0 0 38 23" fill="none" xmlns="http://www.w3.org/2000/svg">
<g id="Mastercard">
<path id="Left" fill-rule="evenodd" clip-rule="evenodd" d="M18.6316 20.0491C16.6582 21.7125 14.0984 22.7166 11.3011 22.7166C5.0597 22.7166 0 17.7171 0 11.55C0 5.38279 5.0597 0.383301 11.3011 0.383301C14.0984 0.383301 16.6582 1.38746 18.6316 3.05087C20.605 1.38746 23.1649 0.383301 25.9621 0.383301C32.2036 0.383301 37.2632 5.38279 37.2632 11.55C37.2632 17.7171 32.2036 22.7166 25.9621 22.7166C23.1649 22.7166 20.605 21.7125 18.6316 20.0491Z" fill="#ED0006"/>
<path id="Right" fill-rule="evenodd" clip-rule="evenodd" d="M18.6316 20.0491C21.0615 18.0009 22.6023 14.9532 22.6023 11.55C22.6023 8.14671 21.0615 5.09904 18.6316 3.05087C20.605 1.38746 23.1649 0.383301 25.9621 0.383301C32.2035 0.383301 37.2632 5.38279 37.2632 11.55C37.2632 17.7171 32.2035 22.7166 25.9621 22.7166C23.1649 22.7166 20.605 21.7125 18.6316 20.0491Z" fill="#F9A000"/>
<path id="Middle" fill-rule="evenodd" clip-rule="evenodd" d="M18.6316 20.0492C21.0615 18.001 22.6023 14.9533 22.6023 11.5501C22.6023 8.14685 21.0615 5.0992 18.6316 3.05103C16.2018 5.0992 14.661 8.14685 14.661 11.5501C14.661 14.9533 16.2018 18.001 18.6316 20.0492Z" fill="#FF5E00"/>
</g>
</svg>
