<svg width="19" height="23" viewBox="0 0 19 23" fill="none" xmlns="http://www.w3.org/2000/svg">
<path fill-rule="evenodd" clip-rule="evenodd" d="M5.35703 21.7471L5.7249 19.3319L4.90541 19.3122H0.992188L3.71174 1.48947C3.72021 1.4355 3.7476 1.3854 3.7876 1.34976C3.8278 1.31412 3.87903 1.29457 3.93262 1.29457H10.5309C12.7216 1.29457 14.2333 1.76563 15.0225 2.69553C15.3925 3.13177 15.6282 3.58776 15.7423 4.08937C15.8619 4.61582 15.8638 5.24472 15.7472 6.0119L15.7387 6.0677V6.55933L16.1087 6.77602C16.4203 6.94689 16.6679 7.1424 16.8579 7.36622C17.1743 7.73932 17.3791 8.21344 17.4656 8.77533C17.555 9.35331 17.5255 10.0413 17.3791 10.8201C17.2102 11.7157 16.9373 12.496 16.5686 13.1342C16.2297 13.7224 15.7978 14.2103 15.2849 14.5883C14.7953 14.9476 14.2136 15.2203 13.5559 15.3948C12.9185 15.5663 12.1918 15.6529 11.3947 15.6529H10.8813C10.5142 15.6529 10.1575 15.7895 9.87753 16.0345C9.59675 16.2846 9.41114 16.6263 9.35419 17.0001L9.31538 17.2176L8.66534 21.4746L8.63598 21.6308C8.6281 21.6803 8.6147 21.705 8.595 21.7217C8.57746 21.7369 8.55224 21.7471 8.52761 21.7471H5.35703Z" fill="#28356A"/>
<path fill-rule="evenodd" clip-rule="evenodd" d="M16.4595 6.12447C16.44 6.2546 16.4173 6.38759 16.3921 6.52425C15.5219 11.142 12.5449 12.7372 8.74276 12.7372H6.80684C6.34182 12.7372 5.94991 13.0861 5.8776 13.5602L4.6057 21.899C4.5586 22.2104 4.79072 22.4908 5.09456 22.4908H8.52819C8.93468 22.4908 9.28009 22.1855 9.34413 21.7711L9.37783 21.5908L10.0243 17.3505L10.0659 17.1179C10.1291 16.702 10.4753 16.3966 10.8818 16.3966H11.3953C14.722 16.3966 17.3263 15.0007 18.0874 10.9609C18.4052 9.27342 18.2407 7.86431 17.3994 6.87332C17.1448 6.57455 16.8289 6.32649 16.4595 6.12447Z" fill="#298FC2"/>
<path fill-rule="evenodd" clip-rule="evenodd" d="M15.5487 5.74939C15.4157 5.70927 15.2785 5.67302 15.1379 5.64023C14.9964 5.60825 14.8516 5.57994 14.7024 5.5551C14.1804 5.46793 13.6084 5.42659 12.9958 5.42659H7.82411C7.69662 5.42659 7.57564 5.45632 7.46746 5.51009C7.22885 5.62862 7.05171 5.86201 7.00875 6.14774L5.90848 13.3503L5.87695 13.5603C5.94927 13.0862 6.34118 12.7373 6.8062 12.7373H8.74212C12.5442 12.7373 15.5213 11.1412 16.3914 6.5243C16.4174 6.38765 16.4393 6.25466 16.4588 6.12452C16.2387 6.00376 16.0003 5.9005 15.7436 5.81252C15.6801 5.79073 15.6147 5.76975 15.5487 5.74939Z" fill="#22284F"/>
<path fill-rule="evenodd" clip-rule="evenodd" d="M7.00906 6.14776C7.05201 5.86202 7.22915 5.62863 7.46777 5.51092C7.57673 5.45695 7.69693 5.42721 7.82441 5.42721H12.9961C13.6087 5.42721 14.1807 5.46876 14.7027 5.55593C14.8519 5.58057 14.9967 5.60908 15.1382 5.64105C15.2788 5.67364 15.416 5.71009 15.549 5.75001C15.615 5.77038 15.6804 5.79156 15.7445 5.81253C16.0012 5.90051 16.2398 6.00458 16.4599 6.12454C16.7188 4.41809 16.4577 3.25622 15.5652 2.20413C14.5809 1.04572 12.8048 0.550018 10.5319 0.550018H3.93345C3.46922 0.550018 3.07317 0.898884 3.00145 1.37381L0.253127 19.3798C0.198941 19.736 0.464749 20.0574 0.812328 20.0574H4.88594L7.00906 6.14776Z" fill="#28356A"/>
</svg>
