<svg width="50" height="25" viewBox="0 0 50 25" fill="none" xmlns="http://www.w3.org/2000/svg">
<g clip-path="url(#clip0_6776_32990)">
<path d="M43.8286 6.93241V12.8699H41.6373V8.70486H39.5275V12.8699H37.3362V6.93201H43.8286V6.93241Z" fill="black"/>
<path fill-rule="evenodd" clip-rule="evenodd" d="M32.8358 13.0819C34.7976 13.0819 36.2542 11.9182 36.2542 10.1542C36.2542 8.44675 35.1795 7.33811 33.3834 7.33811C32.5545 7.33811 31.8705 7.62043 31.3553 8.10756C31.4783 7.10071 32.3583 6.36567 33.3271 6.36567C33.5507 6.36567 35.2341 6.36223 35.2341 6.36223L36.1858 4.59949C36.1858 4.59949 34.0726 4.64604 33.0902 4.64604C30.8454 4.68408 29.3291 6.65831 29.3291 9.05592C29.3291 11.8496 30.8079 13.0821 32.836 13.0821L32.8358 13.0819ZM32.8479 8.89927C33.5763 8.89927 34.0812 9.36232 34.0812 10.154C34.0812 10.8664 33.6325 11.4537 32.8479 11.4553C32.0975 11.4553 31.5925 10.9113 31.5925 10.1662C31.5925 9.37426 32.0975 8.89927 32.8479 8.89927Z" fill="black"/>
<path d="M27.5455 10.882C27.5455 10.882 27.0281 11.1706 26.255 11.2252C25.3667 11.2507 24.575 10.7077 24.575 9.74297C24.575 8.8019 25.2736 8.26256 26.2328 8.26256C26.821 8.26256 27.5991 8.657 27.5991 8.657C27.5991 8.657 28.1684 7.64611 28.4634 7.14056C27.9233 6.7445 27.204 6.52734 26.3673 6.52734C24.2558 6.52734 22.6203 7.85942 22.6203 9.73103C22.6203 11.6265 24.1575 12.9276 26.3673 12.8882C26.985 12.8659 27.8371 12.6562 28.3565 12.3335L27.5455 10.882Z" fill="black"/>
<path d="M0.601135 5.28613L3.64074 10.543V13.7495L0.604691 18.996L0.601135 5.28613Z" fill="#5B57A2"/>
<path d="M12.272 8.63012L15.1202 6.94105L20.9493 6.93579L12.272 12.0791V8.63012Z" fill="#D90751"/>
<path d="M12.2559 5.25523L12.272 12.2151L9.22528 10.4038V0L12.2559 5.25523Z" fill="#FAB718"/>
<path d="M20.9493 6.9358L15.12 6.94106L12.2559 5.25523L9.22528 0L20.9493 6.9358Z" fill="#ED6F26"/>
<path d="M12.272 19.0252V15.6485L9.22528 13.8716L9.22695 24.2857L12.272 19.0252Z" fill="#63B22F"/>
<path d="M15.1131 17.3515L3.64054 10.543L0.601135 5.28613L20.9369 17.3446L15.1131 17.3515Z" fill="#1487C9"/>
<path d="M9.22717 24.2857L12.2718 19.0252L15.1129 17.3515L20.9367 17.3446L9.22717 24.2857Z" fill="#017F36"/>
<path d="M0.604675 18.996L9.25016 13.8717L6.34358 12.1462L3.64073 13.7495L0.604675 18.996Z" fill="#984995"/>
<path d="M24.5756 16.8658C24.5087 16.9484 24.4206 17.0107 24.315 17.0528C24.2066 17.0955 24.0906 17.1172 23.9736 17.1168C23.8573 17.1183 23.7415 17.0995 23.6321 17.0613C23.5337 17.0268 23.4438 16.9729 23.3681 16.9031C23.2933 16.8331 23.2346 16.7487 23.1957 16.6553C23.1537 16.553 23.1327 16.4437 23.134 16.3336C23.134 16.2243 23.1535 16.1231 23.1939 16.0274C23.2308 15.9347 23.287 15.8504 23.3591 15.7796C23.4309 15.7094 23.5158 15.6529 23.6093 15.6131C23.7061 15.5726 23.8117 15.5508 23.9278 15.5508C24.0529 15.5508 24.169 15.5659 24.2746 15.5961C24.3802 15.6264 24.47 15.677 24.5438 15.7479L24.4154 15.9583C24.3533 15.9039 24.2801 15.8625 24.2006 15.8369C24.1249 15.8133 24.0458 15.8014 23.9663 15.8017C23.8962 15.8017 23.8293 15.8151 23.7642 15.8402C23.7001 15.8652 23.6416 15.9019 23.5917 15.9482C23.5407 15.9958 23.5005 16.0532 23.4737 16.1166C23.4434 16.1857 23.4284 16.2601 23.4298 16.3352C23.4298 16.418 23.4455 16.492 23.4754 16.5558C23.5055 16.6218 23.5459 16.6772 23.5967 16.7244C23.648 16.7717 23.7076 16.8069 23.7764 16.8306C23.8462 16.8558 23.9202 16.8684 23.9948 16.8676C24.0897 16.8676 24.1761 16.849 24.2499 16.8136C24.3231 16.7794 24.3888 16.732 24.4436 16.674L24.5756 16.8658ZM24.9381 17.0814V15.5827H25.2163V16.6993L26.1209 15.5827H26.3991V17.0816H26.1209V15.965L25.2163 17.0816L24.9381 17.0814ZM28.2419 16.8658C28.1734 16.9491 28.0837 17.0136 27.9815 17.0528C27.873 17.0955 27.757 17.1172 27.6399 17.1168C27.5236 17.1183 27.408 17.0995 27.2985 17.0613C27.2001 17.0268 27.1102 16.9729 27.0344 16.9031C26.9596 16.8331 26.9008 16.7487 26.862 16.6553C26.82 16.553 26.799 16.4437 26.8003 16.3336C26.8003 16.2243 26.8198 16.1231 26.8601 16.0274C26.899 15.9312 26.9553 15.8489 27.0254 15.7796C27.0972 15.7094 27.1821 15.6529 27.2755 15.6131C27.3758 15.5703 27.4845 15.5491 27.5941 15.5508C27.7192 15.5508 27.8353 15.5659 27.9409 15.5961C28.0465 15.6264 28.1363 15.677 28.2103 15.7479L28.0817 15.9583C28.0196 15.9038 27.9466 15.8625 27.8671 15.8369C27.7914 15.8133 27.7123 15.8015 27.6328 15.8017C27.493 15.8022 27.3588 15.8547 27.258 15.9482C27.2074 15.9962 27.1673 16.0534 27.14 16.1166C27.1096 16.1857 27.0947 16.2601 27.0961 16.3352C27.0961 16.418 27.112 16.492 27.1419 16.5558C27.1718 16.6218 27.2122 16.6772 27.2632 16.7244C27.3142 16.7717 27.374 16.8069 27.4429 16.8306C27.5115 16.8541 27.5836 16.8676 27.661 16.8676C27.7562 16.8676 27.8407 16.849 27.9162 16.8136C27.9894 16.7794 28.0551 16.732 28.1099 16.674L28.2419 16.8658ZM28.3845 15.5827H29.8119V15.8489H29.2381V17.0814H28.96V15.8489H28.3862V15.5827H28.3845Z" fill="black"/>
<path fill-rule="evenodd" clip-rule="evenodd" d="M31.111 17.0665C31.2166 17.0345 31.3064 16.9855 31.3838 16.9183L31.2993 16.7095C31.2482 16.7534 31.1796 16.7904 31.097 16.8208C31.0142 16.8511 30.9209 16.8661 30.8188 16.8661C30.6657 16.8661 30.5389 16.8274 30.4385 16.7483C30.3381 16.669 30.2838 16.5581 30.2712 16.4164H31.4754C31.4882 16.3572 31.4941 16.2968 31.4929 16.2363C31.4943 16.1402 31.4744 16.0449 31.4348 15.9568C31.3988 15.875 31.3461 15.8011 31.28 15.7394C31.213 15.6783 31.134 15.6309 31.0476 15.5998C30.9573 15.5659 30.8611 15.5487 30.7642 15.5492C30.6339 15.5492 30.5195 15.5711 30.4191 15.6115C30.3244 15.6501 30.2388 15.7068 30.1675 15.7783C30.0981 15.8494 30.0448 15.9337 30.011 16.0258C29.9738 16.1239 29.9553 16.2277 29.9564 16.3322C29.9564 16.4502 29.9773 16.5579 30.0162 16.654C30.0539 16.7471 30.1115 16.8315 30.1852 16.9015C30.2574 16.9703 30.3452 17.0227 30.4492 17.0598C30.5605 17.098 30.6779 17.1167 30.796 17.1152C30.9029 17.1146 31.0092 17.098 31.111 17.0665ZM30.407 15.9129C30.4931 15.8372 30.6075 15.8002 30.7519 15.8002C30.8874 15.8002 30.9966 15.8356 31.0759 15.9064C31.1551 15.977 31.1972 16.0748 31.2043 16.1993H30.2538C30.2673 16.0891 30.3217 15.9871 30.407 15.9129Z" fill="black"/>
<path d="M31.8713 15.5828H32.1248L32.7268 16.3255L33.297 15.5828H33.5434V17.0816H33.2652V15.9887L32.7233 16.6841H32.7126L32.1495 15.9885V17.0814H31.8713V15.5828Z" fill="black"/>
<path fill-rule="evenodd" clip-rule="evenodd" d="M34.3 15.5878C34.2156 15.6092 34.135 15.6426 34.0609 15.687L34.1347 15.8995C34.1981 15.8691 34.2615 15.8439 34.3249 15.822C34.3882 15.7997 34.4692 15.7896 34.566 15.7896C34.6434 15.7896 34.7051 15.8018 34.7526 15.8252C34.8001 15.8471 34.8352 15.8809 34.8599 15.9214C34.8846 15.9618 34.9005 16.0122 34.9093 16.0711C34.9181 16.13 34.9216 16.194 34.9216 16.2632C34.8646 16.2248 34.7997 16.1989 34.7313 16.1873C34.6653 16.1746 34.5982 16.1678 34.5309 16.1671C34.4481 16.1671 34.3707 16.179 34.2966 16.199C34.2228 16.2193 34.1594 16.2496 34.1084 16.2901C34.0562 16.3305 34.014 16.3817 33.985 16.4399C33.954 16.5036 33.9384 16.5733 33.9394 16.6437C33.9394 16.7902 33.9833 16.9047 34.0711 16.9857C34.1594 17.0664 34.2755 17.1067 34.4198 17.1067C34.5501 17.1067 34.6541 17.0849 34.7332 17.0411C34.8124 16.9972 34.8758 16.9468 34.9214 16.8894V17.0832H35.182V16.1638C35.182 15.9683 35.1381 15.8169 35.0482 15.7105C34.9603 15.6046 34.8034 15.5506 34.5817 15.5506C34.4832 15.5506 34.3897 15.5642 34.3 15.5878ZM34.7652 16.8021C34.7018 16.8458 34.6187 16.8659 34.5169 16.8659C34.4269 16.8659 34.3567 16.844 34.3075 16.8019C34.2581 16.7582 34.2335 16.7007 34.2335 16.6299C34.2335 16.5882 34.2422 16.5528 34.2617 16.5206C34.2811 16.4884 34.3075 16.4635 34.3374 16.4433C34.3701 16.4221 34.4065 16.4067 34.4447 16.3978C34.4853 16.3876 34.5257 16.3826 34.5679 16.3826C34.7053 16.3826 34.8231 16.4146 34.9199 16.4818V16.672C34.8743 16.7215 34.8223 16.7654 34.7652 16.8021ZM37.6376 15.0556C37.6939 15.0305 37.7464 14.9884 37.796 14.9261L37.6445 14.7156C37.6059 14.7662 37.5619 14.8014 37.5126 14.82C37.4602 14.8398 37.406 14.8544 37.3507 14.8637L37.298 14.8728C37.2519 14.8805 37.203 14.889 37.1501 14.8975C37.0652 14.9127 36.9825 14.9376 36.9037 14.9716C36.7786 15.0238 36.6784 15.0944 36.6025 15.1837C36.5266 15.2729 36.4671 15.3739 36.4266 15.4852C36.3855 15.598 36.3577 15.7149 36.344 15.8337C36.3297 15.9552 36.3228 16.0711 36.3228 16.1822C36.3228 16.3255 36.3421 16.455 36.3808 16.5712C36.4197 16.6876 36.4741 16.7851 36.546 16.8643C36.6184 16.9452 36.7048 17.0059 36.8068 17.0496C36.9089 17.0934 37.0233 17.1152 37.1518 17.1152C37.2697 17.1152 37.3789 17.0934 37.4774 17.0529C37.5724 17.014 37.6585 16.9574 37.7309 16.8863C37.8012 16.8171 37.8577 16.7345 37.8962 16.642C37.9366 16.5481 37.957 16.4473 37.9562 16.3456C37.9562 16.2328 37.9386 16.1302 37.9052 16.0391C37.8743 15.9523 37.8252 15.8727 37.7608 15.8052C37.6964 15.7389 37.6176 15.687 37.5301 15.6534C37.4338 15.6167 37.331 15.5984 37.2275 15.5996C37.1605 15.5996 37.0955 15.6081 37.0321 15.6249C36.9705 15.6417 36.9113 15.666 36.856 15.6973C36.8023 15.7271 36.7532 15.7638 36.71 15.8066C36.6677 15.8489 36.6326 15.8961 36.6079 15.9499H36.6008C36.606 15.8786 36.616 15.8078 36.6307 15.7378C36.6466 15.6654 36.6694 15.5961 36.6995 15.5306C36.7294 15.465 36.7681 15.4059 36.8156 15.3521C36.8665 15.2977 36.929 15.2547 36.9986 15.2258C37.0753 15.1905 37.1563 15.165 37.2398 15.1501L37.295 15.1404C37.35 15.1307 37.4025 15.1214 37.4527 15.1112C37.5197 15.0979 37.5812 15.0807 37.6376 15.0556ZM36.6587 16.4955C36.6316 16.4105 36.6186 16.3218 36.6203 16.2328C36.6321 16.1817 36.6535 16.1332 36.6836 16.0897C36.7146 16.0435 36.7533 16.0024 36.798 15.9683C36.9014 15.89 37.0292 15.8479 37.1605 15.8489C37.3243 15.8489 37.4475 15.8975 37.5337 15.9938C37.6201 16.0914 37.6623 16.2124 37.6623 16.3591C37.6623 16.4316 37.6481 16.4973 37.6236 16.5579C37.5998 16.6176 37.5638 16.672 37.5179 16.718C37.4719 16.764 37.4168 16.8006 37.3559 16.8256C37.2927 16.8525 37.2239 16.8661 37.1465 16.8661C37.0691 16.8661 36.9986 16.8509 36.9336 16.8205C36.8689 16.7908 36.8118 16.7477 36.7663 16.6943C36.7186 16.6347 36.6822 16.5674 36.659 16.4955H36.6587ZM40.0895 15.5828H39.8113V17.0816H40.0895V15.5828ZM38.3574 15.5828H38.6356V16.0325H38.8926C39.014 16.0325 39.1123 16.0476 39.1918 16.0762C39.271 16.1049 39.3344 16.1436 39.3819 16.1907C39.4294 16.2379 39.4628 16.2935 39.4823 16.3557C39.5015 16.418 39.5122 16.482 39.5122 16.5494C39.5122 16.6167 39.5015 16.6809 39.4787 16.7449C39.4576 16.8088 39.4206 16.8643 39.3712 16.9149C39.3221 16.9654 39.2551 17.0059 39.1704 17.0363C39.0861 17.0664 38.984 17.0832 38.8609 17.0832H38.3557V15.5828H38.3574ZM38.6356 16.283V16.8323H38.8381C38.9771 16.8323 39.0757 16.8088 39.1319 16.7614C39.1884 16.7143 39.2164 16.6471 39.2164 16.5579C39.2164 16.4668 39.1865 16.398 39.1303 16.3506C39.0721 16.3035 38.9753 16.2798 38.8416 16.2798H38.6356V16.283Z" fill="black"/>
<path d="M41.9289 16.8658C41.862 16.9484 41.7739 17.0107 41.6683 17.0528C41.5599 17.0955 41.4439 17.1172 41.3269 17.1168C41.2106 17.1183 41.0948 17.0995 40.9854 17.0613C40.887 17.0268 40.7971 16.9729 40.7214 16.9031C40.6466 16.8331 40.5878 16.7487 40.5488 16.6553C40.5069 16.553 40.4861 16.4437 40.4873 16.3336C40.4873 16.2243 40.5066 16.1231 40.5472 16.0274C40.5841 15.9347 40.6403 15.8504 40.7124 15.7796C40.7831 15.7088 40.8672 15.6552 40.9626 15.6131C41.0629 15.5703 41.1715 15.5491 41.2811 15.5508C41.406 15.5508 41.5223 15.5659 41.6279 15.5961C41.7335 15.6264 41.8233 15.677 41.8971 15.7479L41.7687 15.9583C41.7066 15.9039 41.6334 15.8625 41.5539 15.8369C41.4782 15.8133 41.3991 15.8014 41.3196 15.8017C41.2495 15.8017 41.1826 15.8151 41.1173 15.8402C41.0533 15.8652 40.9948 15.9019 40.945 15.9482C40.8944 15.9961 40.8543 16.0534 40.827 16.1166C40.7967 16.1857 40.7817 16.2601 40.7831 16.3352C40.7831 16.418 40.7988 16.492 40.8287 16.5558C40.8586 16.6218 40.8992 16.6772 40.95 16.7244C41.0013 16.7717 41.0609 16.8069 41.1297 16.8306C41.1985 16.8541 41.2707 16.8676 41.3481 16.8676C41.4363 16.8687 41.5236 16.8503 41.6032 16.8136C41.6764 16.7794 41.7421 16.732 41.7969 16.674L41.9289 16.8658ZM42.0711 15.5827H43.4989V15.8489H42.925V17.0814H42.6468V15.8489H42.0732V15.5827H42.0711Z" fill="black"/>
<path fill-rule="evenodd" clip-rule="evenodd" d="M44.0798 15.583H43.8016V17.7485H44.0798V17.0126C44.136 17.048 44.203 17.0733 44.2804 17.0901C44.3577 17.1069 44.4387 17.1152 44.5215 17.1152C44.6447 17.1152 44.7556 17.0934 44.856 17.0531C44.9523 17.0132 45.0395 16.9555 45.1128 16.8831C45.1856 16.8096 45.2418 16.7224 45.2781 16.6269C45.317 16.5277 45.3364 16.4214 45.3364 16.3087C45.3364 16.1974 45.3189 16.0948 45.2854 16.0021C45.2539 15.9141 45.2049 15.8329 45.1411 15.7631C45.0785 15.695 45.0008 15.6415 44.9139 15.6065C44.8189 15.5669 44.7162 15.5474 44.6127 15.5492C44.504 15.5492 44.4019 15.5694 44.305 15.6099C44.2082 15.6504 44.1325 15.6989 44.0798 15.7597V15.583ZM44.2735 15.8609C44.3527 15.8204 44.4387 15.8001 44.5322 15.8001C44.6131 15.8001 44.6853 15.8119 44.7506 15.8372C44.8139 15.8625 44.8667 15.8979 44.9108 15.945C44.9547 15.9922 44.9882 16.0462 45.0091 16.11C45.0321 16.1739 45.0426 16.2431 45.0426 16.3188C45.0426 16.3998 45.0285 16.472 45.0041 16.5394C44.981 16.6033 44.9444 16.6619 44.8966 16.7113C44.8485 16.7601 44.7904 16.7985 44.7259 16.824C44.654 16.8531 44.5766 16.8674 44.4987 16.8661C44.4232 16.8661 44.3527 16.8578 44.2858 16.841C44.2125 16.8217 44.143 16.7909 44.08 16.7499V16.0072C44.1291 15.9501 44.1944 15.9013 44.2735 15.8609ZM47.4695 15.5828H47.1913V17.0816H47.4695V15.5828ZM45.7359 15.5828H46.0141V16.0325H46.271C46.3923 16.0325 46.491 16.0476 46.5701 16.0762C46.6496 16.1049 46.713 16.1436 46.7604 16.1907C46.8079 16.2379 46.8414 16.2935 46.8606 16.3557C46.8801 16.418 46.8905 16.482 46.8905 16.5494C46.8905 16.6167 46.8801 16.6809 46.8571 16.7448C46.8362 16.8088 46.7991 16.8643 46.7498 16.9149C46.7006 16.9654 46.6337 17.0059 46.549 17.0363C46.4647 17.0664 46.3626 17.0832 46.2394 17.0832H45.7343V15.5828H45.7359ZM46.016 16.283V16.8323H46.2185C46.3574 16.8323 46.4561 16.8088 46.5124 16.7614C46.5686 16.7143 46.5969 16.6471 46.5969 16.5579C46.5969 16.4668 46.567 16.398 46.5107 16.3506C46.4526 16.3035 46.3557 16.2798 46.2221 16.2798H46.016V16.283Z" fill="black"/>
<path d="M48.804 16.3053L49.3989 17.0816H49.0575L48.598 16.4753L48.1315 17.0816H47.8077L48.3991 16.3186L47.8427 15.5828H48.1844L48.6086 16.1486L49.0395 15.5828H49.3637L48.804 16.3053ZM24.3698 18.934H23.5162V20.1835H23.238V18.6849H24.6478V20.1835H24.3696L24.3698 18.934ZM26.2265 18.9508H25.6775L25.6597 19.2034C25.6405 19.4173 25.6141 19.5891 25.5771 19.7202C25.5401 19.8518 25.4943 19.9528 25.4415 20.0234C25.3888 20.0942 25.3271 20.1428 25.2566 20.1667C25.1839 20.1922 25.107 20.2048 25.0297 20.2037L25.0086 19.9443C25.0445 19.9451 25.08 19.9376 25.1123 19.9224C25.1512 19.9056 25.1897 19.8686 25.2267 19.8131C25.2638 19.7557 25.2972 19.6749 25.3271 19.5703C25.357 19.4644 25.3765 19.3264 25.387 19.1528L25.4152 18.6863H26.5047V20.1851H26.2265V18.9508Z" fill="black"/>
<path fill-rule="evenodd" clip-rule="evenodd" d="M27.2546 18.6883C27.1647 18.7118 27.0837 18.7454 27.0151 18.7874L27.0892 18.9997C27.1526 18.9694 27.2159 18.9441 27.2791 18.9222C27.3425 18.9004 27.4234 18.8903 27.5203 18.8903C27.5977 18.8903 27.6594 18.902 27.7068 18.9255C27.7545 18.9475 27.7897 18.9811 27.8144 19.0216C27.8388 19.0621 27.8547 19.1127 27.8635 19.1714C27.8723 19.2305 27.8759 19.2944 27.8759 19.3634C27.8189 19.3251 27.7539 19.2992 27.6855 19.2877C27.6195 19.275 27.5524 19.2683 27.4851 19.2675C27.4025 19.2675 27.3249 19.2792 27.2509 19.2995C27.177 19.3197 27.1136 19.3501 27.0626 19.3905C27.0104 19.4309 26.9683 19.4821 26.9392 19.5403C26.9083 19.604 26.8928 19.6737 26.8938 19.7441C26.8938 19.8904 26.9377 20.0052 27.0256 20.0859C27.1134 20.1667 27.2299 20.2072 27.3743 20.2072C27.5046 20.2072 27.6083 20.1853 27.6876 20.1414C27.7667 20.0977 27.8298 20.0471 27.8759 19.9896V20.1835H28.1365V19.2641C28.1365 19.0688 28.0923 18.9172 28.0026 18.8111C27.9145 18.7049 27.7579 18.6512 27.5362 18.6512C27.441 18.6513 27.3464 18.6639 27.2546 18.6883ZM27.7211 19.9022C27.6579 19.9461 27.5751 19.9663 27.473 19.9663C27.3814 19.9663 27.3128 19.9445 27.2636 19.9022C27.2143 19.8584 27.1896 19.801 27.1896 19.7305C27.1896 19.6884 27.1984 19.653 27.2178 19.6211C27.2371 19.5891 27.2636 19.5638 27.2935 19.5435C27.3234 19.5233 27.3603 19.5081 27.4008 19.498C27.4411 19.488 27.4825 19.4829 27.524 19.483C27.6612 19.483 27.7792 19.515 27.8761 19.5822V19.7724C27.8303 19.8218 27.7782 19.8656 27.7211 19.9022Z" fill="black"/>
<path d="M28.409 18.6848H29.8366V18.9507H29.2626V20.1832H28.9844V18.9507H28.4109V18.6848H28.409Z" fill="black"/>
<path fill-rule="evenodd" clip-rule="evenodd" d="M31.1357 20.1684C31.2413 20.1364 31.331 20.0874 31.4084 20.0202L31.3239 19.8114C31.2729 19.8553 31.2043 19.8923 31.1215 19.9227C31.0388 19.953 30.9456 19.968 30.8433 19.968C30.6904 19.968 30.5636 19.9294 30.4632 19.8502C30.3628 19.7711 30.3084 19.66 30.2959 19.5183H31.5001C31.5122 19.4663 31.5176 19.407 31.5176 19.3382C31.5176 19.2356 31.4982 19.1429 31.4595 19.0587C31.4234 18.977 31.3707 18.9031 31.3045 18.8416C31.2376 18.7803 31.1586 18.7328 31.0723 18.7017C30.9819 18.6678 30.8858 18.6506 30.7889 18.6511C30.6586 18.6511 30.5442 18.673 30.4438 18.7135C30.3491 18.7519 30.2634 18.8087 30.1921 18.8802C30.1227 18.9513 30.0693 19.0356 30.0353 19.1277C29.9982 19.2259 29.9798 19.3297 29.9809 19.4341C29.9809 19.5521 30.0018 19.6598 30.0407 19.7559C30.0796 19.8518 30.1375 19.9344 30.2097 20.0034C30.2819 20.0724 30.3699 20.1247 30.4739 20.1617C30.5851 20.1999 30.7025 20.2188 30.8205 20.2173C30.9244 20.2173 31.0301 20.2003 31.1357 20.1684ZM30.43 19.0132C30.5161 18.9375 30.6306 18.9005 30.7749 18.9005C30.9123 18.9005 31.0196 18.9375 31.0989 19.0065C31.1779 19.0773 31.2202 19.1749 31.2273 19.2995H30.2769C30.2903 19.1893 30.3447 19.0875 30.43 19.0132ZM31.6532 18.6849H32.0052L32.5419 19.4074L31.9682 20.1835H31.6268L32.2286 19.4072L31.6532 18.6849ZM32.6105 18.6849H32.8887V20.1835H32.6105V18.6849ZM33.8831 20.1835L33.2707 19.4072L33.8427 18.6847H33.4976L32.9573 19.4072L33.5382 20.1835H33.8831ZM35.154 20.1684C35.2596 20.1364 35.3493 20.0874 35.4267 20.0202L35.3422 19.8114C35.2912 19.8553 35.2226 19.8923 35.14 19.9227C35.0571 19.953 34.9639 19.968 34.8618 19.968C34.7087 19.968 34.5819 19.9294 34.4815 19.8502C34.3811 19.7711 34.3267 19.66 34.3142 19.5183H35.5184C35.5307 19.4663 35.5359 19.407 35.5359 19.3382C35.5359 19.2356 35.5167 19.1429 35.4778 19.0587C35.4417 18.977 35.3891 18.9032 35.323 18.8416C35.256 18.7803 35.177 18.7328 35.0906 18.7017C35.0003 18.6678 34.9041 18.6506 34.8072 18.6511C34.6771 18.6511 34.5625 18.673 34.4621 18.7135C34.3675 18.752 34.2819 18.8087 34.2106 18.8802C34.1411 18.9512 34.0876 19.0355 34.0538 19.1277C34.0167 19.2258 33.9982 19.3297 33.9994 19.4341C33.9994 19.5521 34.0203 19.6598 34.0592 19.7559C34.0979 19.8518 34.1561 19.9344 34.2282 20.0034C34.3004 20.0724 34.3882 20.1247 34.4922 20.1617C34.6035 20.1999 34.7209 20.2188 34.839 20.2173C34.9459 20.2166 35.0522 20.2001 35.154 20.1684ZM34.4483 19.0132C34.5346 18.9375 34.6491 18.9005 34.7934 18.9005C34.9289 18.9005 35.0379 18.9375 35.1172 19.0065C35.1964 19.0773 35.2385 19.1749 35.2456 19.2995H34.2952C34.3086 19.1893 34.363 19.0875 34.4483 19.0132ZM36.6644 18.1814C36.5006 18.1814 36.4109 18.0938 36.3966 17.9187H36.1346C36.1346 17.9859 36.1469 18.0466 36.1697 18.1039C36.1927 18.1612 36.2262 18.2099 36.2701 18.2504C36.314 18.2909 36.3705 18.3229 36.4353 18.348C36.5006 18.3732 36.5763 18.385 36.6625 18.385C36.7354 18.3864 36.8078 18.3738 36.8756 18.348C36.939 18.3245 36.9917 18.2909 37.0375 18.2504C37.0824 18.2092 37.1177 18.1592 37.1413 18.1039C37.166 18.0466 37.1783 17.9859 37.1783 17.9187H36.9179C36.9053 18.0938 36.8192 18.1814 36.6644 18.1814ZM35.9126 18.6847V20.1835H36.1908L37.0955 19.067V20.1835H37.3737V18.6847H37.0955L36.1908 19.8012V18.6847H35.9126Z" fill="black"/>
</g>
<defs>
<clipPath id="clip0_6776_32990">
<rect width="50" height="24.2857" fill="white"/>
</clipPath>
</defs>
</svg>
