<svg width="41" height="16" viewBox="0 0 41 16" fill="none" xmlns="http://www.w3.org/2000/svg">
<g id="SEPA">
<path id="S-PA" fill-rule="evenodd" clip-rule="evenodd" d="M24.2362 6.14666H26.0915C26.6798 6.1248 27.0376 6.07819 27.1663 6.00515C27.3422 5.90541 27.4603 5.7058 27.519 5.40631C27.5566 5.20698 27.5754 4.91067 27.5754 4.51698C27.5754 4.03476 27.5381 3.67731 27.4631 3.44381C27.356 3.1168 27.0997 2.9176 26.6936 2.84525C26.6134 2.83433 26.4211 2.82852 26.1166 2.82852H24.2362V6.14666ZM21.2601 11.7357V0.333328H26.8047C27.5652 0.333328 28.1455 0.397375 28.5442 0.525332C29.4562 0.819976 30.068 1.42324 30.3814 2.33498C30.5432 2.81346 30.6241 3.53389 30.6241 4.49584C30.6241 5.65243 30.5343 6.48366 30.3569 6.98967C30.0012 7.99036 29.2692 8.56678 28.1638 8.71618C28.0338 8.73859 27.4807 8.75865 26.5045 8.77469L26.0104 8.79171H24.2361V11.7357H21.2601ZM6.31657 3.9706H9.08517C9.10301 3.7187 9.112 3.53029 9.112 3.40427C9.112 1.86783 8.50966 0.932854 7.30486 0.599062C6.81119 0.462529 5.98308 0.393641 4.82107 0.393641C4.08297 0.393641 3.41195 0.421445 2.80707 0.475809C2.0801 0.536121 1.48287 0.737946 1.01616 1.0817C0.69755 1.30566 0.466677 1.63309 0.323405 2.0644C0.180266 2.49558 0.10863 3.06882 0.10863 3.78372C0.10863 4.72243 0.24117 5.42418 0.506118 5.88801C0.807553 6.43386 1.41163 6.79338 2.31809 6.96823C2.66232 7.02896 3.27699 7.09162 4.16185 7.15678C5.26376 7.23327 5.88112 7.29359 6.0138 7.33688C6.36862 7.44644 6.54637 7.75188 6.54637 8.25388C6.54637 8.47798 6.52531 8.66113 6.48292 8.80264C6.4031 9.03254 6.23608 9.19868 5.9816 9.30188C5.8386 9.35693 5.50711 9.38432 4.98768 9.38432H3.96988C3.6989 9.37823 3.46843 9.32691 3.27753 9.22911C3.00212 9.08732 2.86408 8.76889 2.86408 8.2738L2.86398 8.19199L2.86381 8.0367H0.0952148C0.0952148 8.96449 0.161083 9.62723 0.29416 10.0252C0.533082 10.7401 1.02676 11.2149 1.77558 11.4492C2.3857 11.6405 3.46628 11.7357 5.01679 11.7357C5.94565 11.7357 6.63625 11.6918 7.08767 11.6041C8.16517 11.3968 8.85765 10.9031 9.16593 10.1213C9.33603 9.69529 9.42095 9.023 9.42095 8.10504C9.42095 7.70678 9.40244 7.34837 9.36514 7.03159C9.30142 6.50206 9.10167 6.07323 8.7667 5.74511C8.34104 5.32458 7.65499 5.06508 6.7087 4.96672C6.41061 4.93394 5.66326 4.87625 4.46664 4.79436L3.90831 4.75369C3.66321 4.73737 3.46668 4.68273 3.31791 4.58977C3.11025 4.45877 3.00668 4.18543 3.00668 3.7703C3.00668 3.31173 3.12366 3.0139 3.35735 2.87696C3.59117 2.74042 4.07036 2.67223 4.79316 2.67223C5.53743 2.67223 5.9922 2.79078 6.15693 3.0276C6.26318 3.18765 6.31657 3.50207 6.31657 3.9706ZM0.105715 13.997L0.520776 13.9538C0.545728 14.0981 0.596437 14.2039 0.672768 14.2717C0.749234 14.3393 0.852261 14.3731 0.981985 14.3731C1.11935 14.3731 1.22278 14.3431 1.29254 14.283C1.36217 14.2229 1.39691 14.1526 1.39691 14.0721C1.39691 14.0205 1.38229 13.9766 1.35318 13.9402C1.32393 13.904 1.27296 13.8726 1.20011 13.8456C1.15021 13.8281 1.03672 13.7965 0.859506 13.7511C0.631316 13.693 0.471409 13.6214 0.379382 13.5363C0.250061 13.4168 0.1854 13.271 0.1854 13.0989C0.1854 12.9884 0.215852 12.8848 0.276891 12.7885C0.337795 12.6921 0.425797 12.6186 0.540496 12.5683C0.655329 12.5179 0.793906 12.4926 0.956228 12.4926C1.22131 12.4926 1.42079 12.5528 1.55481 12.6729C1.68882 12.7931 1.75912 12.9534 1.76583 13.154L1.33829 13.1713C1.32004 13.0592 1.28087 12.9787 1.22077 12.9295C1.16081 12.8803 1.07079 12.8557 0.950728 12.8557C0.826773 12.8557 0.729916 12.882 0.659756 12.9346C0.614547 12.9682 0.59201 13.0133 0.59201 13.0697C0.59201 13.1213 0.613206 13.1653 0.655463 13.2021C0.709123 13.2486 0.839651 13.2971 1.04705 13.3474C1.25431 13.3977 1.40764 13.4499 1.50705 13.5041C1.60632 13.5582 1.68413 13.6322 1.74034 13.726C1.79641 13.82 1.82458 13.936 1.82458 14.074C1.82458 14.1993 1.79091 14.3165 1.72357 14.4258C1.65622 14.5351 1.56111 14.6163 1.4381 14.6694C1.31508 14.7225 1.16175 14.7492 0.978094 14.7492C0.710867 14.7492 0.505617 14.6852 0.362344 14.5571C0.219206 14.429 0.133618 14.2424 0.105715 13.997ZM2.26782 13.1324H2.67443V14.7102H2.26782V13.1324ZM2.26782 12.5315H2.67443V12.9163H2.26782V12.5315ZM4.16561 14.7102H4.57222V13.7276C4.57222 13.6056 4.56471 13.5118 4.54982 13.4464C4.53492 13.3808 4.5085 13.3223 4.47053 13.2707C4.43257 13.2191 4.37663 13.1767 4.30271 13.1435C4.22879 13.1103 4.1471 13.0935 4.05775 13.0935C3.85518 13.0935 3.68696 13.1837 3.55348 13.3642V13.1324H3.17625V14.7102H3.58286V13.9941C3.58286 13.8173 3.59305 13.6962 3.61371 13.6308C3.63424 13.5652 3.6722 13.5127 3.72774 13.473C3.78328 13.4333 3.84593 13.4134 3.91582 13.4134C3.97028 13.4134 4.01697 13.4273 4.05574 13.455C4.09451 13.4828 4.12241 13.5219 4.13972 13.572C4.15689 13.6221 4.16561 13.7325 4.16561 13.9032V14.7102ZM5.39455 13.8873C5.39455 14.0552 5.42567 14.1782 5.48818 14.2561C5.55056 14.3342 5.62757 14.3731 5.71919 14.3731C5.81726 14.3731 5.90016 14.3331 5.96791 14.2532C6.03552 14.1732 6.06946 14.0547 6.06946 13.8977C6.06946 13.7339 6.03699 13.6121 5.9722 13.5326C5.90727 13.4532 5.82544 13.4134 5.7263 13.4134C5.62998 13.4134 5.55056 13.4525 5.48818 13.5304C5.42567 13.6085 5.39455 13.7274 5.39455 13.8873ZM5.02987 14.814L5.49094 14.8658C5.49872 14.9246 5.51656 14.965 5.54447 14.9871C5.5831 15.0187 5.64387 15.0345 5.72678 15.0345C5.83289 15.0345 5.91244 15.0181 5.96556 14.9855C6.00111 14.9636 6.02821 14.9285 6.04659 14.8799C6.05907 14.8451 6.06537 14.7813 6.06537 14.6881L6.06658 14.4578C5.94665 14.6261 5.79452 14.7102 5.60993 14.7102C5.40401 14.7102 5.24115 14.6206 5.12095 14.4409C5.02665 14.2989 4.97956 14.1222 4.97956 13.9108C4.97956 13.6457 5.04127 13.4434 5.16482 13.3034C5.28837 13.1635 5.44211 13.0935 5.62576 13.0935C5.81518 13.0935 5.97147 13.1794 6.09462 13.351V13.1324H6.47198V14.5507C6.47198 14.7373 6.45709 14.8768 6.42718 14.9689C6.39739 15.0613 6.35554 15.1336 6.30161 15.1862C6.24768 15.2388 6.17578 15.28 6.08576 15.3097C5.99575 15.3395 5.88199 15.3544 5.74449 15.3544C5.48464 15.3544 5.30031 15.3082 5.19152 15.2159C5.08272 15.1237 5.02839 15.0066 5.02839 14.8649C5.02839 14.8509 5.02893 14.834 5.02987 14.814ZM7.36546 12.5315H6.95885V14.7102H7.36546V12.5315ZM8.78122 13.7895C8.77841 13.6666 8.74795 13.5734 8.68987 13.5094C8.63191 13.4455 8.56135 13.4134 8.47818 13.4134C8.38924 13.4134 8.31572 13.4472 8.25777 13.5146C8.19968 13.582 8.17124 13.6737 8.17218 13.7895H8.78122ZM8.76031 14.2132L9.16276 14.2823C9.11071 14.4344 9.02847 14.5503 8.91619 14.6298C8.80391 14.7095 8.66332 14.7492 8.49469 14.7492C8.2276 14.7492 8.02999 14.6592 7.90188 14.4792C7.80059 14.335 7.75002 14.1531 7.75002 13.9332C7.75002 13.6709 7.81642 13.4652 7.9495 13.3165C8.08244 13.1678 8.25054 13.0935 8.45377 13.0935C8.68223 13.0935 8.8624 13.1715 8.9944 13.3274C9.1264 13.4836 9.18945 13.7225 9.18369 14.0446H8.16508C8.1679 14.1688 8.2009 14.2653 8.26395 14.3345C8.327 14.4034 8.40561 14.438 8.49979 14.438C8.56378 14.438 8.6177 14.4203 8.6613 14.3847C8.7049 14.3493 8.73804 14.292 8.76031 14.2132ZM10.5141 12.5315V14.7102H12.1197V14.3428H10.9418V13.7506H11.9982V13.3832H10.9418V12.899H12.0779V12.5315H10.5141ZM13.5732 14.7102V14.4739C13.5172 14.5582 13.4438 14.6251 13.3528 14.6748C13.2617 14.7243 13.1656 14.7492 13.0645 14.7492C12.9613 14.7492 12.869 14.7258 12.787 14.6792C12.7052 14.6326 12.6459 14.567 12.6093 14.4828C12.5727 14.3984 12.5544 14.2818 12.5544 14.1329V13.1324H12.961V13.8581C12.961 14.0802 12.9684 14.2163 12.9834 14.2663C12.9983 14.3166 13.0254 14.3562 13.0649 14.3855C13.1043 14.4147 13.1542 14.4292 13.2149 14.4292C13.2841 14.4292 13.3462 14.4099 13.4009 14.3706C13.4558 14.3314 13.4932 14.2829 13.5135 14.2248C13.5336 14.1668 13.5438 14.0248 13.5438 13.7987V13.1324H13.9504V14.7102H13.5732ZM14.4374 14.7102H14.844V14.2223C14.844 13.9537 14.8554 13.777 14.878 13.6928C14.9007 13.6085 14.9318 13.5503 14.9714 13.5179C15.011 13.4858 15.0592 13.4697 15.1162 13.4697C15.1749 13.4697 15.2388 13.4925 15.3072 13.538L15.4309 13.1727C15.3453 13.12 15.2562 13.0935 15.1639 13.0935C15.0985 13.0935 15.0401 13.111 14.9886 13.1457C14.9371 13.1805 14.8791 13.2508 14.8146 13.3568V13.1324H14.4374V14.7102ZM16.0099 13.9213C16.0099 14.0786 16.046 14.1988 16.1183 14.2824C16.1906 14.3659 16.2797 14.4077 16.3858 14.4077C16.4918 14.4077 16.5807 14.3659 16.6525 14.2824C16.7243 14.1988 16.7602 14.0775 16.7602 13.9184C16.7602 13.7634 16.7243 13.6438 16.6525 13.5604C16.5807 13.4769 16.4918 13.4351 16.3858 13.4351C16.2797 13.4351 16.1906 13.4769 16.1183 13.5604C16.046 13.6438 16.0099 13.7643 16.0099 13.9213ZM15.5949 13.8989C15.5949 13.7597 15.628 13.625 15.6944 13.4947C15.7607 13.3645 15.8546 13.2651 15.9763 13.1964C16.0978 13.1278 16.2337 13.0935 16.3837 13.0935C16.6154 13.0935 16.8052 13.1713 16.9533 13.3269C17.1013 13.4825 17.1753 13.6792 17.1753 13.9169C17.1753 14.1565 17.1005 14.3552 16.951 14.5128C16.8016 14.6704 16.6134 14.7492 16.3865 14.7492C16.2462 14.7492 16.1123 14.7163 15.985 14.6509C15.8576 14.5851 15.7607 14.489 15.6944 14.3622C15.628 14.2353 15.5949 14.0811 15.5949 13.8989ZM18.9269 13.5215V12.8991H19.1324C19.2859 12.8991 19.3878 12.904 19.4387 12.914C19.5076 12.927 19.5646 12.9594 19.6097 13.0112C19.6548 13.0631 19.6773 13.129 19.6773 13.2088C19.6773 13.2737 19.6612 13.3305 19.6292 13.3793C19.5971 13.4283 19.5527 13.4643 19.4962 13.4872C19.4396 13.5102 19.3275 13.5215 19.1598 13.5215H18.9269ZM18.4994 12.5315V14.7102H18.9269V13.8889H19.2049C19.3976 13.8889 19.5449 13.8786 19.6468 13.8577C19.7216 13.8408 19.7953 13.8065 19.8677 13.7543C19.9401 13.7023 20 13.6307 20.0469 13.5397C20.094 13.4482 20.1175 13.3359 20.1175 13.2021C20.1175 13.0287 20.0767 12.8871 19.995 12.7777C19.9133 12.6682 19.812 12.5969 19.691 12.5643C19.6123 12.5426 19.4431 12.5315 19.1838 12.5315H18.4994ZM21.395 13.9538C21.3431 13.9718 21.2611 13.9931 21.1489 14.018C21.0368 14.0428 20.9634 14.0673 20.9291 14.091C20.8762 14.1299 20.8501 14.1792 20.8501 14.2388C20.8501 14.2976 20.871 14.3482 20.9131 14.3911C20.9554 14.4338 21.009 14.4553 21.0744 14.4553C21.1472 14.4553 21.2166 14.4304 21.2828 14.3807C21.3317 14.3428 21.3639 14.2966 21.3792 14.2418C21.3896 14.206 21.395 14.1378 21.395 14.0372V13.9538ZM20.8501 13.6123L20.4854 13.5431C20.5267 13.3903 20.5978 13.2772 20.6987 13.2038C20.7997 13.1303 20.9496 13.0935 21.1486 13.0935C21.3293 13.0935 21.464 13.1157 21.5524 13.1597C21.6408 13.2041 21.7032 13.2601 21.7391 13.328C21.7752 13.3959 21.7933 13.5208 21.7933 13.7025L21.7892 14.1908C21.7892 14.3297 21.7956 14.4323 21.8085 14.4981C21.8215 14.5641 21.8458 14.6348 21.8813 14.7102H21.4789C21.4681 14.6829 21.4553 14.6424 21.4398 14.5887C21.4331 14.5643 21.4283 14.5482 21.4256 14.5403C21.3564 14.6099 21.2825 14.6622 21.2037 14.6971C21.125 14.7318 21.0411 14.7492 20.9518 14.7492C20.7943 14.7492 20.6701 14.7049 20.5794 14.6167C20.4887 14.5283 20.4434 14.4165 20.4434 14.2815C20.4434 14.1923 20.464 14.1126 20.5052 14.0426C20.5467 13.9726 20.6046 13.919 20.6791 13.8817C20.7537 13.8447 20.8611 13.8119 21.0014 13.7841C21.1907 13.7474 21.3219 13.7133 21.395 13.6814V13.6392C21.395 13.5579 21.3757 13.4999 21.3371 13.4652C21.2983 13.4306 21.2255 13.4134 21.1181 13.4134C21.0457 13.4134 20.9892 13.4282 20.9486 13.4575C20.9079 13.4869 20.8751 13.5385 20.8501 13.6123ZM22.517 13.1324H22.0853L22.6687 14.7146C22.6445 14.8037 22.6098 14.8771 22.5643 14.935C22.5188 14.9925 22.4489 15.0214 22.3541 15.0214C22.303 15.0214 22.2453 15.0151 22.1816 15.0019L22.2194 15.3291C22.2944 15.3459 22.3711 15.3544 22.4491 15.3544C22.5261 15.3544 22.5952 15.3459 22.6563 15.3289C22.7175 15.3122 22.7688 15.2884 22.8107 15.2581C22.8526 15.228 22.8898 15.1884 22.922 15.1398C22.9541 15.0911 22.9881 15.0207 23.0238 14.9283L23.6615 13.1324H23.2423L22.8839 14.2526L22.517 13.1324ZM23.9785 13.1324H24.3516V13.3479C24.4856 13.1783 24.6451 13.0935 24.8302 13.0935C24.9284 13.0935 25.0138 13.1143 25.0861 13.1559C25.1584 13.1977 25.2177 13.2608 25.2638 13.345C25.3312 13.2608 25.404 13.1977 25.4818 13.1559C25.5599 13.1143 25.6429 13.0935 25.7315 13.0935C25.8442 13.0935 25.9394 13.117 26.0173 13.1644C26.0953 13.2113 26.1536 13.2806 26.1921 13.372C26.2199 13.4394 26.2339 13.5485 26.2339 13.6994V14.7102H25.8273V13.8065C25.8273 13.6496 25.8133 13.5485 25.7855 13.5029C25.748 13.4431 25.6904 13.4134 25.6127 13.4134C25.556 13.4134 25.5026 13.4312 25.4527 13.467C25.4028 13.5029 25.3668 13.5551 25.3448 13.6242C25.3227 13.6931 25.3116 13.8021 25.3116 13.9509V14.7102H24.905V13.8438C24.905 13.6897 24.8979 13.5907 24.8834 13.5459C24.869 13.5012 24.8467 13.468 24.8164 13.4461C24.7861 13.4244 24.7452 13.4134 24.6933 13.4134C24.6309 13.4134 24.5747 13.4308 24.5248 13.4655C24.4749 13.5002 24.4392 13.5504 24.4175 13.6159C24.3959 13.6814 24.3851 13.79 24.3851 13.9419V14.7102H23.9785V13.1324ZM27.5431 13.5094C27.6013 13.5734 27.6316 13.6666 27.6346 13.7895H27.0255C27.0246 13.6737 27.053 13.582 27.1111 13.5146C27.1689 13.4472 27.2426 13.4134 27.3314 13.4134C27.4146 13.4134 27.4853 13.4455 27.5431 13.5094ZM28.0161 14.2823L27.6136 14.2132C27.5914 14.292 27.5584 14.3493 27.5145 14.3847C27.4709 14.4203 27.4171 14.438 27.3531 14.438C27.2588 14.438 27.1802 14.4034 27.1173 14.3345C27.0542 14.2653 27.0212 14.1688 27.0183 14.0446H28.037C28.0428 13.7225 27.9796 13.4836 27.8476 13.3274C27.7156 13.1715 27.5356 13.0935 27.3071 13.0935C27.1037 13.0935 26.9358 13.1678 26.8027 13.3165C26.6699 13.4652 26.6032 13.6709 26.6032 13.9332C26.6032 14.1531 26.6538 14.335 26.7551 14.4792C26.8833 14.6592 27.0809 14.7492 27.3479 14.7492C27.5167 14.7492 27.6571 14.7095 27.7695 14.6298C27.8818 14.5503 27.9639 14.4344 28.0161 14.2823ZM29.8466 14.7102H29.44V13.9032C29.44 13.7325 29.4312 13.6221 29.4142 13.572C29.3969 13.5219 29.3689 13.4828 29.3301 13.455C29.2913 13.4273 29.2446 13.4134 29.1902 13.4134C29.1204 13.4134 29.0576 13.4333 29.0022 13.473C28.9467 13.5127 28.9087 13.5652 28.8881 13.6308C28.8675 13.6962 28.8572 13.8173 28.8572 13.9941V14.7102H28.4506V13.1324H28.8278V13.3642C28.9615 13.1837 29.1295 13.0935 29.3321 13.0935C29.4215 13.0935 29.5033 13.1103 29.5771 13.1435C29.651 13.1767 29.7071 13.2191 29.745 13.2707C29.783 13.3223 29.8093 13.3808 29.8242 13.4464C29.8392 13.5118 29.8466 13.6056 29.8466 13.7276V14.7102ZM31.0464 13.4652V13.1324H30.7696V12.5705L30.363 12.8169V13.1324H30.1785V13.4652H30.363V14.1549C30.363 14.3028 30.3671 14.4012 30.3759 14.4499C30.3863 14.5183 30.4051 14.5727 30.4323 14.6128C30.4597 14.6531 30.5025 14.686 30.5607 14.7112C30.6191 14.7365 30.6844 14.7492 30.7573 14.7492C30.8757 14.7492 30.9818 14.7283 31.0756 14.6867L31.04 14.3633C30.97 14.39 30.9169 14.4034 30.8799 14.4034C30.8534 14.4034 30.8312 14.3963 30.8127 14.3825C30.7943 14.3685 30.7825 14.351 30.7774 14.3295C30.7721 14.3082 30.7696 14.2328 30.7696 14.1036V13.4652H31.0464ZM31.275 14.2651L31.6816 14.2002C31.6989 14.2808 31.7339 14.342 31.7866 14.3839C31.8395 14.4258 31.9133 14.4465 32.0082 14.4465C32.113 14.4465 32.1918 14.4266 32.2445 14.3868C32.28 14.3587 32.2979 14.3215 32.2979 14.2745C32.2979 14.2426 32.2881 14.2161 32.2688 14.1953C32.2484 14.1753 32.203 14.1569 32.1325 14.1399C31.8039 14.065 31.5956 13.9968 31.5079 13.9353C31.3861 13.8499 31.3253 13.7311 31.3253 13.5793C31.3253 13.4421 31.3777 13.3269 31.483 13.2337C31.5885 13.1403 31.7517 13.0935 31.973 13.0935C32.1836 13.0935 32.34 13.1285 32.4425 13.1984C32.5448 13.2684 32.6154 13.3717 32.6542 13.5085L32.2727 13.582C32.2562 13.5207 32.2248 13.4735 32.1786 13.4409C32.1323 13.4081 32.0665 13.3918 31.981 13.3918C31.8732 13.3918 31.7957 13.4071 31.7492 13.4383C31.7179 13.4601 31.7025 13.4885 31.7025 13.5233C31.7025 13.5533 31.7159 13.5788 31.743 13.5998C31.7796 13.6276 31.9064 13.6671 32.1231 13.718C32.3397 13.7689 32.4911 13.8311 32.577 13.9048C32.6618 13.9795 32.7045 14.0837 32.7045 14.2172C32.7045 14.3626 32.6457 14.4876 32.5286 14.5922C32.4112 14.6969 32.2379 14.7492 32.0082 14.7492C31.7999 14.7492 31.6349 14.7056 31.5134 14.6189C31.3918 14.5319 31.3124 14.4142 31.275 14.2651ZM34.8839 13.0417L35.1793 13.8501H34.5984L34.8839 13.0417ZM35.503 14.7102H35.9634L35.1102 12.5315H34.6605L33.8421 14.7102H34.2946L34.4687 14.2175H35.3203L35.503 14.7102ZM36.6613 14.7102H36.2547V13.1324H36.6319V13.3568C36.6964 13.2508 36.7542 13.1805 36.8059 13.1457C36.8573 13.111 36.9156 13.0935 36.9812 13.0935C37.0735 13.0935 37.1625 13.12 37.2482 13.1727L37.1245 13.538C37.0559 13.4925 36.9922 13.4697 36.9335 13.4697C36.8763 13.4697 36.8282 13.4858 36.7886 13.5179C36.749 13.5503 36.7179 13.6085 36.6953 13.6928C36.6725 13.777 36.6613 13.9537 36.6613 14.2223V14.7102ZM38.3311 13.5094C38.3891 13.5734 38.4195 13.6666 38.4225 13.7895H37.8134C37.8123 13.6737 37.8409 13.582 37.899 13.5146C37.957 13.4472 38.0303 13.4134 38.1194 13.4134C38.2025 13.4134 38.273 13.4455 38.3311 13.5094ZM38.8039 14.2823L38.4015 14.2132C38.3791 14.292 38.3461 14.3493 38.3025 14.3847C38.2588 14.4203 38.205 14.438 38.1408 14.438C38.0468 14.438 37.9682 14.4034 37.905 14.3345C37.8421 14.2653 37.8091 14.1688 37.8061 14.0446H38.8249C38.8306 13.7225 38.7675 13.4836 38.6356 13.3274C38.5035 13.1715 38.3233 13.0935 38.095 13.0935C37.8917 13.0935 37.7235 13.1678 37.5907 13.3165C37.4576 13.4652 37.3911 13.6709 37.3911 13.9332C37.3911 14.1531 37.4417 14.335 37.5429 14.4792C37.6711 14.6592 37.8688 14.7492 38.1359 14.7492C38.3045 14.7492 38.4451 14.7095 38.5574 14.6298C38.6697 14.5503 38.7519 14.4344 38.8039 14.2823ZM40.0853 13.9538C40.0335 13.9718 39.9514 13.9931 39.8393 14.018C39.7271 14.0428 39.6539 14.0673 39.6194 14.091C39.5666 14.1299 39.5404 14.1792 39.5404 14.2388C39.5404 14.2976 39.5613 14.3482 39.6036 14.3911C39.6457 14.4338 39.6994 14.4553 39.7647 14.4553C39.8375 14.4553 39.9069 14.4304 39.9732 14.3807C40.022 14.3428 40.0542 14.2966 40.0695 14.2418C40.0799 14.206 40.0853 14.1378 40.0853 14.0372V13.9538ZM39.5403 13.6123L39.1756 13.5431C39.2169 13.3903 39.288 13.2772 39.3889 13.2038C39.4899 13.1303 39.6399 13.0935 39.8388 13.0935C40.0195 13.0935 40.1542 13.1157 40.2426 13.1597C40.331 13.2041 40.3934 13.2601 40.4294 13.328C40.4654 13.3959 40.4835 13.5208 40.4835 13.7025L40.4794 14.1908C40.4794 14.3297 40.4858 14.4323 40.4987 14.4981C40.5117 14.5641 40.536 14.6348 40.5714 14.7102H40.1691C40.1584 14.6829 40.1456 14.6424 40.1301 14.5887C40.1235 14.5643 40.1185 14.5482 40.1158 14.5403C40.0466 14.6099 39.9728 14.6622 39.8941 14.6971C39.8153 14.7318 39.7314 14.7492 39.642 14.7492C39.4845 14.7492 39.3603 14.7049 39.2696 14.6167C39.1791 14.5283 39.1337 14.4165 39.1337 14.2815C39.1337 14.1923 39.1543 14.1126 39.1956 14.0426C39.2369 13.9726 39.2949 13.919 39.3693 13.8817C39.4439 13.8447 39.5513 13.8119 39.6917 13.7841C39.881 13.7474 40.0121 13.7133 40.0853 13.6814V13.6392C40.0853 13.5579 40.0659 13.4999 40.0273 13.4652C39.9887 13.4306 39.9157 13.4134 39.8084 13.4134C39.7359 13.4134 39.6795 13.4282 39.6388 13.4575C39.5983 13.4869 39.5653 13.5385 39.5403 13.6123ZM34.9911 2.60097L36.3855 7.54367H33.6379L34.9911 2.60097ZM32.9976 9.76501H36.9767L37.5444 11.7357H40.5587L37.1956 0.333328H32.7064L29.384 11.7357H32.463L32.9976 9.76501Z" fill="#10298E"/>
<path id="Fill 26" fill-rule="evenodd" clip-rule="evenodd" d="M17.1526 1.93753C18.3801 1.93753 19.4755 2.5206 20.1957 3.43386L20.8372 2.01555C19.8338 1.03769 18.4683 0.434845 16.9622 0.434845C14.6173 0.434845 12.6113 1.8952 11.788 3.96242H10.5371L9.79846 5.59528H11.4077C11.3957 5.74675 11.3879 5.89836 11.3879 6.05301C11.3879 6.24018 11.3973 6.42512 11.4152 6.60786H10.6064L9.86795 8.24127H11.8264C12.6732 10.2562 14.654 11.6708 16.9622 11.6708C18.1254 11.6708 19.2048 11.3114 20.0985 10.6975V8.69569C19.3788 9.54061 18.3261 10.0746 17.1526 10.0746C15.7808 10.0746 14.5741 9.34515 13.8714 8.24127H17.9725L18.711 6.60786H13.268C13.24 6.41129 13.2249 6.21043 13.2249 6.00584C13.2249 5.86751 13.2319 5.73057 13.2448 5.59528H19.1687L19.9072 3.96242H13.7571C14.4372 2.75203 15.703 1.93753 17.1526 1.93753Z" fill="#FFBE00"/>
</g>
</svg>
