<svg width="124" height="40" viewBox="0 0 124 40" fill="none" xmlns="http://www.w3.org/2000/svg">
<g id="tag">
<rect id="Rectangle 23" width="124" height="40" rx="8" fill="#FFDD2D"/>
<g id="tinkoff/rus/left/no bg/small gerb">
<g id="text1">
<path d="M47.2345 23.2169V18.4441H50.0421V16.7073H42.3824V18.4441H45.1901V23.2169H47.2345Z" fill="#333333"/>
<path d="M52.8365 20.4955V16.7073H50.8603V23.2169H52.6048L56.0122 19.4288V23.2169H57.9884V16.7073H56.2439L52.8365 20.4955Z" fill="#333333"/>
<path d="M64.6369 20.7963V23.2169H66.6132V16.7073H64.6369V19.0869H61.4613V16.7073H59.4851V23.2169H61.4613V20.7963H64.6369Z" fill="#333333"/>
<path d="M72.1169 23.2169C72.5666 23.2169 72.9755 23.1759 73.3571 23.0665C74.3793 22.7793 75.0471 21.9451 75.0471 20.81C75.0471 19.7296 74.4747 18.9775 73.5616 18.6356C73.1254 18.4715 72.6075 18.4578 72.1169 18.4578H70.0861V16.7073H68.1098V23.2169H72.1169ZM71.7761 19.9895C72.0487 19.9895 72.3077 19.9895 72.5394 20.0715C72.8665 20.1809 73.0573 20.4544 73.0573 20.7827C73.0573 21.1245 72.8665 21.4117 72.553 21.5485C72.3349 21.6442 72.1169 21.6442 71.7761 21.6442H70.0861V19.9895H71.7761Z" fill="#333333"/>
<path d="M78.5905 20.7553L80.9484 23.2169H83.5789L80.2942 19.8254L83.4562 16.7073H80.9757L78.5905 19.1553H78.0454V16.7073H76.0691V23.2169H78.0454V20.7553H78.5905Z" fill="#333333"/>
<path d="M87.6453 16.5295C84.9876 16.5295 83.393 18.0339 83.393 19.9758C83.393 21.9177 84.9876 23.4221 87.6453 23.4221C90.2894 23.4221 91.884 21.9177 91.884 19.9758C91.884 18.0339 90.2894 16.5295 87.6453 16.5295ZM87.6453 21.8357C86.3232 21.8357 85.4782 21.0425 85.4782 19.9758C85.4782 18.9091 86.3232 18.1296 87.6453 18.1296C88.9537 18.1296 89.8123 18.9091 89.8123 19.9758C89.8123 21.0425 88.9537 21.8357 87.6453 21.8357Z" fill="#333333"/>
<path d="M98.4656 16.3381H96.4893V16.9945C94.0088 17.0492 92.5232 18.1022 92.5232 19.9621C92.5232 21.822 94.0088 22.793 96.4893 22.8477V23.5041H98.4656V22.8477C100.96 22.793 102.445 21.822 102.445 19.9621C102.445 18.1022 100.96 17.0492 98.4656 16.9945V16.3381ZM96.4893 21.4528C95.1264 21.3981 94.5267 20.8374 94.5267 19.9621C94.5267 19.0869 95.1264 18.4578 96.4893 18.4031V21.4528ZM98.4656 18.4031C99.8421 18.4578 100.428 19.0869 100.428 19.9621C100.428 20.8374 99.8421 21.3981 98.4656 21.4528V18.4031Z" fill="#333333"/>
<path d="M109.02 16.3381H107.044V16.9945C104.563 17.0492 103.078 18.1022 103.078 19.9621C103.078 21.822 104.563 22.793 107.044 22.8477V23.5041H109.02V22.8477C111.514 22.793 113 21.822 113 19.9621C113 18.1022 111.514 17.0492 109.02 16.9945V16.3381ZM107.044 21.4528C105.681 21.3981 105.081 20.8374 105.081 19.9621C105.081 19.0869 105.681 18.4578 107.044 18.4031V21.4528ZM109.02 18.4031C110.397 18.4578 110.983 19.0869 110.983 19.9621C110.983 20.8374 110.397 21.3981 109.02 21.4528V18.4031Z" fill="#333333"/>
</g>
<g id="gerb">
<path id="Vector" d="M37.0295 18.9851L37.3718 17.8922L36.2393 17.9276C36.1436 17.9276 35.4481 17.908 34.7733 17.4201C34.8236 17.425 34.8739 17.4319 34.9252 17.4319C35.6198 17.4319 36.2916 17.0148 36.5609 16.4187L37.0483 15.3416C36.4376 15.3495 35.8792 15.2727 35.8792 15.2727C35.8743 15.2718 35.4343 15.2157 34.9252 14.6973C34.5602 14.3255 34.1084 14.1287 33.6191 14.1287C33.405 14.1287 33.2136 14.1671 33.0489 14.2192C33.0745 14.1317 33.0992 14.0432 33.113 13.9517C33.2689 12.9434 32.6178 12.1742 32.6178 12.1752L31.7664 11.1236L31.2386 12.3591C31.2366 12.3631 31.1034 12.6523 30.8647 12.7939C30.7927 12.4309 30.6161 12.0227 30.2383 11.6322C29.526 10.8964 28.6588 10.7872 28.205 10.7872C27.9949 10.7872 27.8449 10.8098 27.8084 10.8157L26.7805 11.0174C26.8397 10.7882 26.9659 10.3898 27.1968 10.0308L27.764 9.14942L26.3365 9.31172L25.8818 8.34871L25.0018 8.8012L24.1879 7.99951L23.376 8.8012L22.493 8.34871L22.0392 9.31172L20.6127 9.14942L21.181 10.0308C21.4118 10.3898 21.5381 10.7872 21.5963 11.0164L20.6157 10.8236L20.5821 10.8177C20.5328 10.8098 20.3838 10.7872 20.1727 10.7872C19.7189 10.7872 18.8518 10.8974 18.1415 11.6322C17.7626 12.0217 17.5861 12.4309 17.513 12.7939C17.2763 12.6542 17.1441 12.369 17.1441 12.369L16.6153 11.1266L15.7501 12.185C15.6446 12.3217 15.1227 13.0447 15.2648 13.9536C15.2796 14.0441 15.3032 14.1327 15.3289 14.2202C15.1651 14.1681 14.9737 14.1297 14.7597 14.1297C14.2703 14.1297 13.8185 14.3264 13.4525 14.6983C12.9454 15.2147 12.5074 15.2727 12.5114 15.2727C12.5114 15.2727 12.0487 15.3554 11.3325 15.3426L11.8168 16.4197C12.0862 17.0168 12.759 17.4329 13.4525 17.4329C13.5048 17.4329 13.5551 17.426 13.6064 17.4211C12.9336 17.909 12.2381 17.9286 12.1542 17.9296L11 17.8922L11.3492 18.9841C11.5248 19.5468 12.1118 20.4793 13.2365 20.5796C13.1141 21.0911 12.8428 21.6636 12.247 21.9105L11.3877 22.2636L11.8563 23.0771C12.1207 23.5159 12.7412 24.0293 13.6251 24.0293C13.8165 24.0283 14.001 24.0097 14.1786 23.9723C14.224 24.1729 14.2812 24.3736 14.3483 24.5723C14.6117 25.3533 14.3848 25.8983 14.3818 25.9042L13.9576 26.7905L14.9047 27.0393C14.9165 27.0433 15.2026 27.121 15.5607 27.121C15.7235 27.121 15.8784 27.1043 16.0244 27.0698C16.1349 27.0443 16.2404 27.0098 16.342 26.9685C16.4644 27.1879 16.6133 27.3876 16.787 27.5666C17.3937 28.1873 18.2529 28.5021 19.3421 28.5021H19.346L20.1234 28.4922L18.5173 29.1572L19.7367 29.7444C20.1796 29.9599 20.7055 30.2146 21.2401 30.4094L21.0882 30.8245L21.5085 31.0153C21.546 31.032 22.3539 31.393 23.6976 31.4698C23.6976 31.4698 24.0222 31.4845 24.2007 31.4845C24.3793 31.4845 24.6999 31.4688 24.6999 31.4688C26.0347 31.3901 26.8367 31.033 26.8742 31.0153L27.2954 30.8235L27.1416 30.4074C27.692 30.2067 28.2366 29.9421 28.6608 29.7356L29.8575 29.1562L28.2563 28.4903L29.0367 28.5001C30.1268 28.5001 30.987 28.1853 31.5928 27.5636C31.7654 27.3856 31.9144 27.1859 32.0377 26.9666C32.1393 27.0079 32.2458 27.0423 32.3563 27.0679C32.5014 27.1023 32.6562 27.119 32.819 27.119C33.1712 27.119 33.4603 27.0413 33.4681 27.0393L34.4192 26.7885L34.0048 25.9189C33.995 25.8963 33.7681 25.3524 34.0315 24.5703C34.0985 24.3707 34.1548 24.17 34.2001 23.9703C34.3787 24.0077 34.5652 24.0274 34.7575 24.0274C35.8832 24.0274 36.4228 23.2375 36.5274 23.0663L36.991 22.2617L36.1318 21.9095C35.5349 21.6626 35.2646 21.0892 35.1433 20.5786C36.2521 20.4842 36.848 19.5517 37.0295 18.9851ZM21.6713 11.3932L21.6594 11.3961L21.6693 11.3833L21.6713 11.3932Z" fill="white"/>
<path id="Vector_2" d="M24.1882 11.3445C23.2787 11.3455 22.597 11.6426 22.448 11.9918L24.1882 12.6764L25.9285 11.9918C25.7805 11.6426 25.0988 11.3455 24.1882 11.3445Z" fill="white"/>
<path id="Vector_3" d="M24.208 29.469H24.206H24.1912H24.1745H24.1735C23.622 29.473 22.8634 29.3598 22.4974 29.2536L22.0574 30.4409C22.3474 30.5442 23.33 30.7409 24.1912 30.7409C25.0505 30.7409 26.0341 30.5432 26.3231 30.4409L25.8841 29.2536C25.5171 29.3608 24.7595 29.473 24.208 29.469Z" fill="white"/>
<path id="Vector_4" d="M27.5376 28.2894C27.21 28.4744 26.479 28.7518 26.0538 28.8806L26.411 29.8613C27.069 29.6823 27.6116 29.4728 28.0604 29.2485L27.3195 29.0026L27.5376 28.2894Z" fill="white"/>
<path id="Vector_5" d="M20.8423 28.2894L21.0613 29.0026L20.3195 29.2485C20.7673 29.4728 21.3129 29.6823 21.9679 29.8613L22.3251 28.8806C21.9018 28.7518 21.1698 28.4734 20.8423 28.2894Z" fill="white"/>
<path id="Vector_6" d="M24.1903 10.2109C24.8759 10.2109 25.5487 10.3742 26.0657 10.6615C26.113 10.5031 26.1791 10.3113 26.2689 10.1106L26.0736 10.1342L25.8684 10.1558L25.7815 9.96994L25.5201 9.41908L25.0436 9.66697L24.8582 9.7614L24.7102 9.61582L24.1922 9.10431L23.6753 9.61582L23.5273 9.7614L23.3419 9.66697L22.8624 9.41908L22.6039 9.96994L22.5152 10.1558L22.31 10.1342L22.1146 10.1106C22.2044 10.3123 22.2695 10.5031 22.3178 10.6615C22.8358 10.3742 23.5066 10.2109 24.1903 10.2109Z" fill="white"/>
<path id="Vector_7" d="M34.6568 16.5767C34.7456 16.6072 34.8363 16.621 34.9261 16.621C35.3138 16.621 35.6887 16.3711 35.8179 16.0849C35.8179 16.0849 35.1067 16.0416 34.3421 15.2674C34.0984 15.0166 33.8409 14.9418 33.62 14.9418C33.2766 14.9418 33.0192 15.1228 33.0192 15.1228C33.9426 15.6127 34.131 16.3996 34.6568 16.5767Z" fill="white"/>
<path id="Vector_8" d="M13.4511 16.621C13.5409 16.621 13.6317 16.6072 13.7185 16.5767C14.2463 16.3996 14.4357 15.6127 15.3591 15.1228C15.3591 15.1228 15.1006 14.9418 14.7593 14.9418C14.5373 14.9418 14.2798 15.0166 14.0352 15.2674C13.2716 16.0416 12.5603 16.0849 12.5603 16.0849C12.6876 16.3711 13.0634 16.621 13.4511 16.621Z" fill="white"/>
<path id="Vector_9" d="M34.9064 19.7729C34.9222 19.7739 34.936 19.7739 34.9528 19.7739C35.9206 19.7739 36.2491 18.74 36.2491 18.74H36.2304C36.0528 18.74 34.6134 18.6987 33.5963 17.4091C32.9265 16.5612 32.378 15.8156 31.2938 15.5225L31.1872 15.5038L31.1636 15.3956C31.134 15.2303 31.2474 15.0759 31.5049 14.9087C33.0005 13.9319 31.9853 12.6866 31.9853 12.6866C31.9853 12.6866 31.5582 13.683 30.6022 13.683C30.5795 13.683 30.5549 13.682 30.5312 13.682C30.4227 13.6761 30.3181 13.6722 30.2126 13.6496L30.036 13.6151C30.036 13.6151 30.3082 12.8764 29.6512 12.1977C29.156 11.6852 28.5532 11.5986 28.205 11.5986C28.0294 11.5986 27.9179 11.6213 27.9179 11.6213C28.2484 12.0521 28.4871 12.7662 28.1053 13.2069C27.7758 13.5856 26.9708 13.6043 26.9708 14.169C26.9708 14.408 27.1948 14.6873 27.5973 14.9382C28.8077 15.6986 30.0093 16.7068 30.5085 18.0584C31.133 19.7444 30.4296 20.8628 29.4253 21.5041C29.4253 21.5041 29.74 21.7933 30.1968 21.8297C30.2895 21.8386 30.3803 21.8425 30.4651 21.8425C31.4289 21.8425 31.9271 21.392 31.9271 21.392C31.9271 21.392 31.8453 22.0147 31.3431 22.5931C30.8804 23.1272 30.2727 23.441 29.3464 23.4548C29.3464 23.4548 29.3168 23.8836 29.7272 24.2545C29.9896 24.4886 30.5963 24.5653 30.5963 24.5653C30.5963 24.5653 29.4608 24.7945 29.3355 26.4667C29.2675 27.3727 29.0356 27.6875 29.0356 27.6875H29.0563C31.6914 27.6875 31.6233 25.4339 31.6233 25.4339C31.6233 25.4339 31.8068 26.1008 32.5417 26.2749C32.6305 26.2985 32.7252 26.3074 32.816 26.3074C33.0528 26.3074 33.258 26.2523 33.258 26.2523C33.258 26.2523 32.8732 25.4427 33.255 24.3105C33.5717 23.3711 33.5204 22.6747 33.5204 22.6747C33.5204 22.6747 33.8755 23.2098 34.7555 23.2147H34.7644C35.4974 23.2147 35.817 22.6609 35.817 22.6609C34.06 21.934 34.2336 19.587 34.2336 19.587C34.2336 19.587 34.4615 19.7562 34.9064 19.7729ZM34.3777 22.2242C33.6634 21.873 33.2116 20.9405 33.1021 20.6041C32.9837 22.4534 32.0781 23.7371 31.0195 24.9726C30.47 25.6129 30.2786 26.2356 30.2786 26.2356C30.2786 26.2356 30.3842 25.5303 30.8597 24.9558C31.8472 23.7725 32.7854 22.2999 32.8555 20.5972C32.9038 19.4089 32.597 18.4449 32.1185 17.6511C32.3859 18.4784 32.3484 19.4916 31.4398 20.4369C31.4398 20.4369 33.2481 18.2758 30.7196 16.0605C29.7074 15.2175 28.6006 14.6972 28.0304 14.3283C30.0902 14.9982 31.0955 14.2604 31.0955 14.2604C30.4375 14.829 29.5861 14.8192 29.0583 14.7375C29.2014 14.8074 29.3503 14.8801 29.5111 14.9657C31.2474 15.9061 32.8081 17.4534 33.0745 19.5968V19.5801C33.4789 21.6842 34.3777 22.2242 34.3777 22.2242Z" fill="white"/>
<path id="Vector_10" d="M17.7793 24.5653C17.7793 24.5653 18.386 24.4896 18.6484 24.2545C19.0578 23.8836 19.0292 23.4548 19.0292 23.4548C18.1019 23.442 17.4951 23.1272 17.0295 22.5941C16.5313 22.0157 16.4484 21.393 16.4484 21.393C16.4484 21.393 16.9466 21.8435 17.9095 21.8435C17.9963 21.8435 18.0861 21.8396 18.1788 21.8307C18.6356 21.7943 18.9513 21.5051 18.9513 21.5051C17.947 20.8638 17.2426 19.7444 17.8661 18.0584C18.3662 16.7078 19.5668 15.6986 20.7773 14.9382C21.1798 14.6873 21.4038 14.409 21.4038 14.169C21.4038 13.6043 20.5997 13.5856 20.2702 13.2069C19.8885 12.7662 20.1282 12.0511 20.4577 11.6213C20.4577 11.6213 20.3482 11.5986 20.1716 11.5986C19.8243 11.5986 19.2216 11.6852 18.7263 12.1977C18.0673 12.8764 18.3406 13.6151 18.3406 13.6151L18.164 13.6496C18.0584 13.6722 17.9529 13.6761 17.8454 13.682C17.8207 13.682 17.799 13.683 17.7753 13.683C16.8174 13.683 16.3922 12.6876 16.3922 12.6876C16.3922 12.6876 15.3771 13.9329 16.8717 14.9097C17.1291 15.0769 17.2416 15.2313 17.212 15.3966L17.1883 15.5048L17.0798 15.5235C15.9976 15.8166 15.4481 16.5622 14.7782 17.4101C13.7631 18.6978 12.3257 18.74 12.1462 18.74H12.1265C12.1265 18.74 12.455 19.7739 13.4228 19.7739C13.4385 19.7739 13.4524 19.7739 13.4691 19.7729C13.9141 19.7572 14.1429 19.587 14.1429 19.587C14.1429 19.587 14.3146 21.933 12.5595 22.6609C12.5595 22.6609 12.8792 23.2147 13.6122 23.2147H13.6211C14.502 23.2098 14.8562 22.6747 14.8562 22.6747C14.8562 22.6747 14.8049 23.3711 15.1206 24.3105C15.5024 25.4427 15.1196 26.2523 15.1196 26.2523C15.1196 26.2523 15.3248 26.3074 15.5606 26.3074C15.6523 26.3074 15.746 26.2985 15.8338 26.2749C16.5678 26.1008 16.7523 25.4339 16.7523 25.4339C16.7523 25.4339 16.6852 27.6875 19.3202 27.6875H19.339C19.339 27.6875 19.1081 27.3727 19.041 26.4667C18.9148 24.7945 17.7793 24.5653 17.7793 24.5653ZM17.356 24.9726C16.2975 23.7371 15.3929 22.4534 15.2735 20.6041C15.164 20.9395 14.7141 21.873 13.9999 22.2242C13.9999 22.2242 14.8976 21.6842 15.3011 19.5801V19.5968C15.5685 17.4544 17.1282 15.9061 18.8654 14.9657C19.0243 14.8792 19.1752 14.8064 19.3173 14.7375C18.7895 14.8192 17.9381 14.829 17.2801 14.2604C17.2801 14.2604 18.2853 14.9982 20.3442 14.3283C19.774 14.6972 18.6681 15.2175 17.6559 16.0605C15.1265 18.2758 16.9358 20.4369 16.9358 20.4369C16.0262 19.4906 15.9897 18.4784 16.2571 17.6511C15.7776 18.4459 15.4718 19.4089 15.5211 20.5972C15.5902 22.2999 16.5283 23.7725 17.5139 24.9558C17.9904 25.5293 18.0979 26.2356 18.0979 26.2356C18.0979 26.2356 17.9045 25.6129 17.356 24.9726Z" fill="white"/>
<path id="Vector_11" d="M22.2412 16.3274C22.2846 16.3736 22.3271 16.4238 22.3675 16.4739C22.3774 16.4857 22.3862 16.4966 22.3961 16.5103C22.4336 16.5605 22.4721 16.6136 22.5086 16.6677C22.5165 16.6785 22.5244 16.6913 22.5332 16.7041C22.5776 16.771 22.6191 16.8399 22.6605 16.9107C23.0403 17.5648 23.649 17.9553 24.1886 17.9563C24.7292 17.9553 25.336 17.5648 25.7177 16.9107C25.7602 16.8379 25.8026 16.7671 25.847 16.7012C25.8539 16.6913 25.8608 16.6825 25.8667 16.6726C25.9042 16.6166 25.9437 16.5615 25.9851 16.5084C25.994 16.4966 26.0019 16.4867 26.0098 16.4769C26.0522 16.4248 26.0956 16.3736 26.14 16.3264C26.1479 16.3185 26.1538 16.3116 26.1607 16.3057C26.3541 16.108 26.5849 15.9575 26.8868 15.8739L26.7526 15.7962H26.7447L26.21 15.4863L25.6605 15.1725L24.1926 15.9693L24.1886 15.9664L24.1857 15.9693L22.7167 15.1725L22.1682 15.4854L21.6325 15.7952H21.6266L21.4905 15.8729C21.7933 15.9565 22.0232 16.1051 22.2175 16.3028C22.2264 16.3106 22.2323 16.3195 22.2412 16.3274ZM23.5947 16.2634H24.2163H24.8368V16.6884C24.6908 16.5103 24.4067 16.5467 24.4067 16.5467V17.1595C24.4067 17.1595 24.4175 17.4606 24.5231 17.5914H24.2163H23.9085C24.016 17.4615 24.0259 17.1595 24.0259 17.1595V16.5467C24.0259 16.5467 23.7427 16.5103 23.5947 16.6884V16.2634Z" fill="white"/>
<path id="Vector_12" d="M24.0616 15.438V12.9504L22.4733 12.4133L22.8925 14.8242L24.0616 15.438ZM23.7202 13.5612V13.9606L23.6433 13.9252C23.6393 13.9222 23.5269 13.8966 23.3296 13.7412C23.004 13.4894 22.9981 13.2573 22.9981 13.2573L23.7202 13.5612Z" fill="white"/>
<path id="Vector_13" d="M25.4861 14.8242L25.9034 12.4133L24.316 12.9504V15.438L25.4861 14.8242ZM24.6574 13.5612L25.3795 13.2582C25.3795 13.2582 25.3736 13.4904 25.0471 13.7422C24.8507 13.8976 24.7373 13.9232 24.7333 13.9261L24.6564 13.9616V13.5612H24.6574Z" fill="white"/>
<path id="Vector_14" d="M21.8137 21.2055C21.9686 21.2616 22.156 21.2734 22.2517 21.2734C22.2557 21.2616 22.2606 21.2469 22.2655 21.2291C22.2744 21.2006 22.2823 21.1731 22.2882 21.1416C22.3149 21.0039 22.3247 20.8475 22.3267 20.7472C22.2616 20.7068 22.1698 20.635 22.1186 20.5278C22.0594 20.4039 21.9755 20.3468 21.8522 20.3468C21.6924 20.3468 21.5207 20.4422 21.4477 20.4875C21.3895 20.8308 21.643 21.1426 21.8137 21.2055Z" fill="white"/>
<path id="Vector_15" d="M25.329 19.8854C25.0341 20.2051 24.4569 20.7619 24.4283 20.7904L24.3938 20.8258L22.5697 20.7973C22.5687 20.9773 22.5391 21.1308 22.5105 21.2429C22.5056 21.2616 22.5007 21.2813 22.4957 21.3009L24.6661 21.6895C24.892 21.5321 25.5135 21.0796 25.7542 20.9025C25.5786 20.6468 25.5619 20.3438 25.6013 20.1304C25.4869 20.0566 25.3991 19.974 25.329 19.8854Z" fill="white"/>
<path id="Vector_16" d="M25.5769 17.6986C25.1566 18.1147 24.7531 18.2682 24.3931 18.3036C24.3279 18.3105 24.2618 18.3144 24.1948 18.3144H24.1898H24.1859C24.1188 18.3144 24.0517 18.3105 23.9866 18.3036C23.9235 18.2977 23.8574 18.2878 23.7913 18.2731C23.7676 18.3665 23.738 18.5623 23.8228 18.7472C23.8988 18.9154 24.0537 19.0404 24.2796 19.123L24.3556 19.1525L24.3566 19.2341C24.3566 19.2587 24.3743 19.7879 24.9534 19.9345C25.0481 19.8371 25.1339 19.7496 25.1971 19.6768C25.0787 19.3994 25.1408 19.1161 25.3125 18.9774C25.3046 19.0069 25.2296 19.7014 25.788 19.9591L25.8797 20.0024L25.8521 20.0998C25.8432 20.1293 25.6568 20.8011 26.3326 21.051L26.4519 21.0962L26.3987 21.2123C26.3868 21.2379 26.1214 21.8477 26.7459 22.194H28.1004V21.1218C27.619 21.0628 27.4148 20.6772 27.3625 20.4037C27.1386 20.3653 26.9649 20.2689 26.8465 20.1116C26.5624 19.7388 26.8071 19.3974 26.81 19.3787C26.8091 19.3817 26.81 19.7456 27.035 19.9699C27.1464 20.0781 27.2786 20.1617 27.4789 20.1804L27.5776 20.1893L27.5864 20.2896C27.5884 20.3112 27.6427 20.8031 28.1014 20.8808L28.1004 18.6911C28.1004 18.3518 28.2001 18.0105 28.3194 17.6957H25.5769V17.6986Z" fill="white"/>
<path id="Vector_17" d="M21.9312 18.702L21.8947 20.0969L22.0535 20.1205L22.4422 18.7827L22.2449 18.3715L21.9312 18.702Z" fill="white"/>
<path id="Vector_18" d="M26.2161 25.0977C26.2279 25.0977 26.2417 25.0997 26.2545 25.1026C26.4962 25.1715 26.5574 26.041 26.9816 26.1187C27.023 26.1276 27.0615 26.1296 27.0951 26.1296C27.2174 26.1296 27.2904 26.0774 27.3693 25.985C27.3693 25.985 27.1562 25.6505 26.9964 25.4253C26.7843 25.1302 26.6196 24.7731 26.2249 24.7731C26.2161 24.7731 26.2042 24.7731 26.1944 24.7741C26.0641 24.781 25.9842 24.8439 25.9842 24.8439C25.8244 24.7436 25.6754 24.7091 25.5403 24.7091C25.2927 24.7091 25.1003 24.8223 25.0046 24.8223H25.0007L24.1187 24.7357C23.9806 24.7229 23.8721 24.5842 23.8326 24.5301C23.8228 24.5154 23.8178 24.5065 23.8178 24.5065C23.8178 24.4829 23.8178 24.4583 23.8158 24.4367C23.7862 23.7176 23.2279 23.4097 23.0296 23.4048C23.0296 23.4048 23.0533 23.2681 22.999 23.2159L22.8047 23.451L22.1664 23.1313L22.6212 23.6615L22.2354 24.0934C22.1871 24.1426 22.193 24.2094 22.2127 24.237L22.3795 24.3836L22.5906 24.2557C22.6014 24.2478 22.6202 24.2458 22.6439 24.2458C22.7021 24.2458 22.7899 24.2606 22.8688 24.2606C22.9546 24.2606 23.0296 24.2419 23.0385 24.1612C23.0118 24.4278 22.7642 24.8911 22.927 25.2551L23.0473 25.5295L22.268 25.4174L21.903 26.0322C21.7905 26.2368 21.7728 26.4581 21.8813 26.5781L22.0174 26.7483C22.0174 26.7483 22.2088 26.5457 22.2522 26.4129L22.1901 26.345C22.1378 26.2879 22.1407 26.2368 22.1723 26.1748L22.4012 25.7961L23.3216 26.0125L23.3699 25.9299C23.4321 25.8266 23.5219 25.7951 23.6205 25.7951C23.661 25.7951 23.7024 25.8 23.7458 25.8069C23.9165 25.8404 24.1976 25.8856 24.4788 25.8856C24.7876 25.8856 25.0934 25.8305 25.2562 25.6485C25.5896 26.1414 26.2654 26.2201 26.2121 26.4699L26.0345 27.3139C26.1519 27.309 26.2654 27.3011 26.3729 27.2864L26.5416 26.4079C26.5604 26.3125 26.5781 26.1837 26.5781 26.1837C26.513 26.1178 26.3552 25.9781 26.2664 25.8089C26.147 25.5807 26.2121 25.4617 26.1006 25.1646C26.1046 25.1666 26.1381 25.0977 26.2161 25.0977ZM22.7731 23.8642C22.7277 23.8632 22.6952 23.8248 22.6971 23.7796C22.7011 23.7363 22.7376 23.7019 22.782 23.7058C22.8273 23.7078 22.8599 23.7471 22.8579 23.7904C22.854 23.8337 22.8165 23.8671 22.7731 23.8642Z" fill="white"/>
<path id="Vector_19" d="M21.5169 25.8975C21.5169 25.8975 21.8217 25.7725 21.8493 25.683L21.8089 25.5817C21.7803 25.5158 21.7842 25.444 21.8395 25.4047L22.169 25.1774L22.7195 25.2827C22.7195 25.2827 22.6198 25.1587 22.6297 24.9925L22.1049 24.8813L21.6096 25.1824C21.3975 25.3407 21.3817 25.5994 21.4518 25.7529L21.5169 25.8975Z" fill="white"/>
<path id="Vector_20" d="M25.4073 27.3279C25.506 27.324 25.6145 27.322 25.7339 27.322C25.7339 27.322 26.017 26.4967 26.0328 26.4702C25.874 26.4003 25.5445 26.2262 25.4172 26.1465C25.5011 26.2715 25.7053 26.4151 25.6648 26.5253L25.4073 27.3279Z" fill="white"/>
<path id="Vector_21" d="M28.1015 22.4321H20.2754V25.3673C20.2754 26.5674 21.1465 27.3189 22.4319 27.3189C23.5063 27.3189 23.7894 27.3602 24.1889 27.7557C24.4642 27.4822 24.6921 27.3799 25.1597 27.3415L25.1705 27.2963L25.4172 26.5359C25.4034 26.5192 24.9999 26.0618 24.9999 26.0618C24.8401 26.1149 24.7059 26.1238 24.48 26.1238C24.2481 26.1238 23.9867 26.0972 23.7036 26.0441C23.675 26.0372 23.6483 26.0352 23.6217 26.0352C23.5872 26.0352 23.5842 26.0382 23.5753 26.0549L23.526 26.1356L23.4362 26.2831L23.2675 26.2448L22.5168 26.0687L22.4142 26.2379L22.43 26.2556L22.5217 26.3559L22.4813 26.4867C22.426 26.6579 22.2465 26.8576 22.1922 26.9127L22.0048 27.1133L21.8341 26.8979L21.7059 26.7376C21.5707 26.5871 21.5391 26.3559 21.6151 26.1139C21.6131 26.1159 21.6102 26.1169 21.6072 26.1169L21.3951 26.2044L21.2994 25.9979L21.2323 25.8513C21.1169 25.5936 21.1593 25.2168 21.4701 24.9896L22.0748 24.6492L22.65 24.7624C22.6638 24.7073 22.6845 24.5106 22.7013 24.4604C22.6904 24.4594 22.6796 24.4565 22.6687 24.4565L22.3372 24.5794L22.0176 24.3591C22.0176 24.3591 21.8923 24.2391 22.0058 24.1191L22.3155 23.6518L21.5312 22.6701L22.7368 23.1639L22.8167 23.0646L22.9795 22.8708L23.1639 23.0459C23.2162 23.096 23.2458 23.158 23.2606 23.22C23.5931 23.3488 24.188 23.7295 24.2402 24.3482L24.0538 24.423V24.4279C24.0962 24.4781 24.1317 24.4987 24.1426 24.5007L25.0028 24.5853C25.0245 24.5814 25.0522 24.5715 25.0827 24.5627C25.1893 24.5263 25.3501 24.4742 25.5405 24.4742C25.6954 24.4742 25.8453 24.5096 25.9894 24.5765C26.0426 24.5568 26.1077 24.542 26.1827 24.5371L26.2242 24.5361C26.6849 24.5361 26.9137 24.8794 27.0972 25.1529C27.1278 25.2001 27.1584 25.2454 27.19 25.2896C27.3508 25.5159 27.5609 25.8474 27.5698 25.8611L27.6645 26.0087L27.5481 26.1434C27.4583 26.2467 27.3241 26.3677 27.0933 26.3677C27.0459 26.3677 26.9936 26.3628 26.9374 26.352C26.8881 26.3431 26.8437 26.3284 26.8003 26.3107C26.7934 26.3559 26.7845 26.41 26.7756 26.4562L26.6247 27.2412C27.5274 27.0199 28.1005 26.3402 28.1005 25.3683L28.1015 22.4321Z" fill="#FFDD2D"/>
<path id="Vector_22" d="M20.2761 22.1959H26.362C26.0582 21.8831 26.0621 21.4867 26.14 21.229C26.0512 21.1867 25.9782 21.1356 25.9131 21.0805C25.6754 21.2556 24.9493 21.7828 24.7599 21.9146L24.7194 21.9422L22.3311 21.5113H22.2827C22.2255 21.5113 22.1416 21.5093 22.0499 21.4985C22.0242 21.6057 21.9315 21.6795 21.825 21.6795C21.8131 21.6795 21.7993 21.6785 21.7865 21.6756C21.7243 21.6648 21.6701 21.6333 21.6336 21.5812C21.5961 21.53 21.5813 21.469 21.5921 21.4061L21.601 21.3549C21.3544 21.1818 21.1275 20.7952 21.2281 20.388L21.238 20.3447L21.2725 20.3201C21.2774 20.3162 21.3189 20.2886 21.38 20.2532L21.2064 20.2266C21.1413 20.2148 21.0979 20.1548 21.1078 20.0909C21.1186 20.026 21.1798 19.9798 21.2439 19.9925L21.6573 20.0575L21.6947 18.6056L22.3103 17.9564L22.6941 18.762L22.2886 20.1588L22.6536 20.2158C22.7178 20.2257 22.7622 20.2857 22.7523 20.3516C22.7424 20.4096 22.6931 20.4499 22.6349 20.4499C22.629 20.4499 22.6221 20.4499 22.6162 20.449L22.3192 20.4008C22.3232 20.4096 22.3291 20.4145 22.333 20.4244C22.3646 20.4893 22.4346 20.5365 22.4761 20.5562L24.2972 20.5847C24.3742 20.5099 24.5655 20.323 24.7619 20.1253C24.314 19.9561 24.1512 19.5705 24.1236 19.3148C23.873 19.2086 23.7004 19.0492 23.6047 18.8416C23.4882 18.5849 23.5297 18.3282 23.5603 18.2033C23.3176 18.1147 23.0621 17.9534 22.8016 17.6957H20.0591C20.1765 18.0105 20.2761 18.3518 20.2761 18.6911V22.1959Z" fill="#FFDD2D"/>
<path id="Vector_23" d="M22.7829 23.7065C22.7384 23.7026 22.7008 23.737 22.6978 23.7803C22.6948 23.8255 22.7285 23.8639 22.774 23.8649C22.8176 23.8688 22.8562 23.8354 22.8601 23.7911C22.8601 23.7479 22.8285 23.7075 22.7829 23.7065Z" fill="#333333"/>
<path id="Vector_24" d="M28.0917 29.0287L27.6409 28.8566L27.7652 28.3923L27.9023 27.8857C27.9023 27.8857 27.1032 28.3175 25.9776 28.6421C25.658 28.7336 25.4163 28.7749 25.4163 28.7749V29.1192C25.4163 29.1192 24.8145 29.2235 24.2058 29.2235H24.1989H24.19H24.1782H24.1713C23.5626 29.2235 22.9608 29.1192 22.9608 29.1192V28.7749C22.9608 28.7749 22.7181 28.7336 22.3995 28.6421C21.2738 28.3175 20.4757 27.8857 20.4757 27.8857L20.6109 28.3923L20.7381 28.8566L20.2863 29.0287L19.7852 29.2156C20.3603 29.492 21.1564 29.8953 21.8855 30.094L21.7138 30.5622C21.7138 30.5622 22.6382 30.9823 24.1782 30.9862V30.9872H24.1831H24.19H24.1959H24.1999V30.9862C25.7418 30.9823 26.6652 30.5622 26.6652 30.5622L26.4926 30.094C27.2216 29.8953 28.0197 29.492 28.5919 29.2156L28.0917 29.0287ZM20.3199 29.2471L21.0617 29.0012L20.8427 28.288C21.1693 28.4729 21.9022 28.7503 22.3264 28.8792L21.9683 29.8599C21.3133 29.6799 20.7677 29.4704 20.3199 29.2471ZM24.19 30.7403C23.3288 30.7403 22.3452 30.5426 22.0561 30.4403L22.4961 29.253C22.8611 29.3592 23.6208 29.4723 24.1722 29.4684H24.1732H24.19H24.2048H24.2068C24.7582 29.4723 25.5159 29.3592 25.8829 29.253L26.3219 30.4403C26.0328 30.5435 25.0503 30.7403 24.19 30.7403ZM26.4097 29.8599L26.0526 28.8792C26.4778 28.7503 27.2088 28.4729 27.5363 28.288L27.3183 29.0012L28.0592 29.2471C27.6103 29.4704 27.0677 29.6799 26.4097 29.8599Z" fill="#333333"/>
<path id="Vector_25" d="M24.1876 10.4961C25.1051 10.4961 25.8391 10.7991 26.2445 11.1227C26.2445 11.1227 26.3649 10.3997 26.7763 9.76129L26.0374 9.8449L25.6506 9.0255L24.9078 9.40717L24.1876 8.69696L23.4694 9.40717L22.7256 9.0255L22.3399 9.8449L21.601 9.76129C22.0123 10.3997 22.1327 11.1227 22.1327 11.1227C22.5391 10.7991 23.2711 10.4961 24.1876 10.4961ZM22.3063 10.1321L22.5115 10.1538L22.6003 9.96786L22.8588 9.417L23.3382 9.6639L23.5237 9.75834L23.6717 9.61275L24.1886 9.10125L24.7065 9.61275L24.8545 9.75834L25.04 9.6639L25.5165 9.417L25.7779 9.96786L25.8647 10.1538L26.0699 10.1321L26.2652 10.1085C26.1755 10.3102 26.1094 10.501 26.062 10.6594C25.5451 10.3721 24.8723 10.2089 24.1866 10.2089C23.504 10.2089 22.8321 10.3721 22.3132 10.6594C22.2649 10.501 22.1998 10.3092 22.11 10.1085L22.3063 10.1321Z" fill="#333333"/>
<path id="Vector_26" d="M34.9531 20.0908C36.1399 20.0908 36.5364 18.8868 36.5532 18.8357L36.6854 18.4117L36.2405 18.4255H36.2385C36.0817 18.4255 34.7725 18.391 33.8442 17.2146L33.7564 17.1054C33.1497 16.3362 32.5746 15.6053 31.5466 15.2718C31.5762 15.2453 31.6186 15.2118 31.6768 15.1744C32.2224 14.8164 32.54 14.3816 32.6199 13.877C32.7363 13.1176 32.251 12.5126 32.2293 12.4881L31.8988 12.0808L31.6926 12.5638C31.6788 12.5943 31.3315 13.3675 30.6015 13.3675H30.5472C30.4969 13.3645 30.4496 13.3625 30.4022 13.3586C30.4279 13.0133 30.3647 12.4792 29.8794 11.9785C29.2963 11.3755 28.5801 11.285 28.2052 11.285C28.005 11.285 27.8718 11.3096 27.858 11.3116L27.3588 11.41L27.6666 11.8142C27.9083 12.1261 28.1273 12.7015 27.8678 13.0025C27.785 13.0979 27.6143 13.1756 27.4505 13.2533C27.1141 13.4078 26.6554 13.6222 26.6554 14.1691C26.6554 14.5233 26.9306 14.8931 27.4298 15.2079C28.9076 16.1345 29.8192 17.1014 30.2128 18.1687C30.8215 19.8105 30.0273 20.7469 29.2559 21.2397L28.9096 21.462L29.2125 21.7394C29.2529 21.7748 29.6239 22.1004 30.1714 22.1477C30.275 22.1545 30.3746 22.1604 30.4673 22.1604C30.8185 22.1604 31.1175 22.1054 31.3601 22.0316C31.2931 22.1486 31.2112 22.2677 31.1076 22.3877C30.6666 22.8972 30.124 23.1294 29.3437 23.1412L29.0536 23.1461L29.031 23.4363C29.028 23.4943 29.0063 24.0324 29.5173 24.4898C29.5952 24.5606 29.69 24.6186 29.7886 24.6668C29.4423 24.9777 29.0901 25.5187 29.0221 26.4463C28.9649 27.2204 28.7794 27.5067 28.7774 27.5096L28.4568 27.9975L29.0359 28.0054C29.9928 28.0054 30.7258 27.7418 31.2339 27.2204C31.5338 26.9115 31.7054 26.5633 31.807 26.2545C31.9738 26.3961 32.1888 26.52 32.469 26.586C32.5755 26.6105 32.6919 26.6243 32.8172 26.6243C33.0875 26.6243 33.3135 26.5673 33.3391 26.5614L33.7091 26.463L33.5453 26.1187C33.5335 26.0912 33.2247 25.4006 33.5571 24.415C33.7002 23.9891 33.7732 23.6074 33.8087 23.3103C34.0415 23.4313 34.3533 23.5317 34.7568 23.5327C35.6722 23.5327 36.0757 22.851 36.0945 22.8224L36.275 22.5096L35.9406 22.3719C34.8495 21.9204 34.6078 20.7076 34.5594 20.0505C34.6581 20.0692 34.7706 20.0869 34.8978 20.0908H34.9531ZM35.8183 22.6621C35.8183 22.6621 35.4986 23.2159 34.7656 23.2159H34.7568C33.8768 23.211 33.5216 22.6759 33.5216 22.6759C33.5216 22.6759 33.5729 23.3723 33.2553 24.3117C32.8735 25.4439 33.2582 26.2535 33.2582 26.2535C33.2582 26.2535 33.053 26.3086 32.8163 26.3086C32.7255 26.3086 32.6308 26.2997 32.542 26.2761C31.807 26.102 31.6235 25.4351 31.6235 25.4351C31.6235 25.4351 31.6916 27.6886 29.0566 27.6886H29.0359C29.0359 27.6886 29.2677 27.3739 29.3368 26.4679C29.4621 24.7957 30.5976 24.5665 30.5976 24.5665C30.5976 24.5665 29.9918 24.4907 29.7294 24.2556C29.319 23.8848 29.3476 23.4559 29.3476 23.4559C30.275 23.4431 30.8817 23.1284 31.3444 22.5942C31.8455 22.0158 31.9284 21.3932 31.9284 21.3932C31.9284 21.3932 31.4302 21.8437 30.4663 21.8437C30.3815 21.8437 30.2907 21.8398 30.198 21.8309C29.7422 21.7945 29.4265 21.5053 29.4265 21.5053C30.4298 20.864 31.1342 19.7446 30.5098 18.0586C30.0096 16.708 28.808 15.6987 27.5985 14.9384C27.196 14.6875 26.9721 14.4092 26.9721 14.1691C26.9721 13.6045 27.7771 13.5868 28.1076 13.2071C28.4884 12.7664 28.2496 12.0513 27.9191 11.6214C27.9191 11.6214 28.0306 11.5988 28.2062 11.5988C28.5545 11.5988 29.1572 11.6864 29.6525 12.1979C30.3105 12.8766 30.0372 13.6153 30.0372 13.6153L30.2138 13.6498C30.3194 13.6724 30.4239 13.6763 30.5324 13.6812C30.5561 13.6812 30.5798 13.6822 30.6035 13.6822C31.5594 13.6822 31.9866 12.6858 31.9866 12.6858C31.9866 12.6858 33.0027 13.9321 31.5071 14.9079C31.2496 15.0751 31.1362 15.2295 31.1658 15.3948L31.1895 15.503L31.296 15.5217C32.3802 15.8148 32.9287 16.5604 33.5986 17.4084C34.6157 18.6979 36.055 18.7393 36.2326 18.7393H36.2513C36.2513 18.7393 35.9228 19.7731 34.955 19.7731C34.9393 19.7731 34.9254 19.7731 34.9087 19.7721C34.4638 19.7564 34.2359 19.5862 34.2359 19.5862C34.2359 19.5862 34.0612 21.9342 35.8183 22.6621Z" fill="#333333"/>
<path id="Vector_27" d="M32.868 15.4017C33.311 15.6368 33.5684 15.9516 33.7944 16.231C34.0163 16.5034 34.2274 16.7661 34.5569 16.8753C34.6743 16.9156 34.7986 16.9343 34.9249 16.9343C35.4201 16.9343 35.9174 16.6323 36.1058 16.2142L36.2952 15.7952L35.8365 15.7677C35.8148 15.7667 35.2248 15.7136 34.5678 15.0437C34.2975 14.7692 33.9709 14.6246 33.6188 14.6246C33.1886 14.6246 32.87 14.8391 32.8345 14.8607L32.4122 15.1568L32.868 15.4017ZM33.6197 14.9414C33.8407 14.9414 34.0982 15.0161 34.3419 15.267C35.1064 16.0411 35.8177 16.0844 35.8177 16.0844C35.6885 16.3697 35.3136 16.6205 34.9259 16.6205C34.8361 16.6205 34.7464 16.6067 34.6566 16.5762C34.1308 16.3992 33.9423 15.6122 33.018 15.1224C33.018 15.1224 33.2764 14.9414 33.6197 14.9414Z" fill="#333333"/>
<path id="Vector_28" d="M33.0765 19.5812V19.5969C32.8101 17.4545 31.2494 15.9072 29.5131 14.9658C29.3523 14.8803 29.2043 14.8075 29.0603 14.7376C29.5891 14.8193 30.4405 14.8291 31.0975 14.2606C31.0975 14.2606 30.0922 14.9983 28.0323 14.3284C28.6026 14.6973 29.7104 15.2177 30.7216 16.0607C33.2501 18.2759 31.4408 20.437 31.4408 20.437C32.3494 19.4917 32.3869 18.4785 32.1195 17.6513C32.598 18.4451 32.9038 19.4091 32.8565 20.5973C32.7864 22.3001 31.8482 23.7726 30.8607 24.956C30.3862 25.5304 30.2797 26.2357 30.2797 26.2357C30.2797 26.2357 30.471 25.613 31.0205 24.9727C32.0791 23.7372 32.9837 22.4535 33.1021 20.6042C33.2116 20.9396 33.6625 21.8731 34.3777 22.2243C34.3797 22.2253 33.4809 21.6853 33.0765 19.5812Z" fill="#333333"/>
<path id="Vector_29" d="M19.6008 27.5096C19.5998 27.5067 19.4163 27.2204 19.3571 26.4463C19.288 25.5187 18.9368 24.9777 18.5896 24.6668C18.6902 24.6196 18.7829 24.5616 18.8609 24.4898C19.3709 24.0324 19.3492 23.4943 19.3463 23.4363L19.3265 23.1461L19.0345 23.1412C18.2561 23.1284 17.7126 22.8962 17.2716 22.3877C17.169 22.2677 17.0861 22.1486 17.019 22.0316C17.2617 22.1054 17.5587 22.1604 17.9109 22.1604C18.0056 22.1604 18.1032 22.1545 18.2068 22.1476C18.7543 22.1004 19.1253 21.7758 19.1667 21.7394L19.4696 21.462L19.1233 21.2397C18.3489 20.7459 17.5577 19.8095 18.1654 18.1687C18.559 17.1014 19.4696 16.1345 20.9494 15.2079C21.4485 14.8931 21.7218 14.5233 21.7218 14.1691C21.7218 13.6222 21.2641 13.4068 20.9277 13.2533C20.7639 13.1756 20.5932 13.0979 20.5104 13.0025C20.2499 12.7025 20.4699 12.1261 20.7106 11.8142L21.0204 11.41L20.5192 11.3116C20.5044 11.3096 20.3732 11.285 20.172 11.285C19.7971 11.285 19.0829 11.3755 18.4988 11.9785C18.0125 12.4802 17.9483 13.0143 17.973 13.3586C17.9257 13.3625 17.8783 13.3645 17.829 13.3675H17.7757C17.0437 13.3675 16.6974 12.5943 16.6836 12.5638L16.4774 12.0808L16.144 12.4881C16.1252 12.5126 15.6379 13.1186 15.7563 13.877C15.8352 14.3816 16.1529 14.8164 16.6984 15.1744C16.7576 15.2118 16.799 15.2453 16.8286 15.2718C15.8017 15.6053 15.2275 16.3371 14.6208 17.1064L14.533 17.2156C13.6057 18.392 12.2936 18.4264 12.1367 18.4264L11.6898 18.4127L11.826 18.8366C11.8417 18.8878 12.2373 20.0918 13.4251 20.0918L13.4823 20.0898C13.6076 20.0859 13.7201 20.0692 13.8207 20.0495C13.7714 20.7056 13.5297 21.9185 12.4376 22.3709L12.1042 22.5087L12.2847 22.8215C12.3025 22.85 12.7069 23.5317 13.6244 23.5317C14.0249 23.5307 14.3367 23.4304 14.5705 23.3094C14.606 23.6064 14.679 23.9881 14.822 24.414C15.1545 25.3996 14.8447 26.0902 14.8329 26.1177L14.6691 26.462L15.0401 26.5604C15.0647 26.5663 15.2926 26.6233 15.5619 26.6233C15.6882 26.6233 15.8046 26.6096 15.9092 26.585C16.1904 26.5191 16.4074 26.3951 16.5721 26.2535C16.6728 26.5623 16.8454 26.9106 17.1443 27.2194C17.6534 27.7408 18.3854 28.0044 19.3423 28.0044L19.9224 27.9965L19.6008 27.5096ZM19.3206 27.6896C16.6856 27.6896 16.7527 25.436 16.7527 25.436C16.7527 25.436 16.5692 26.103 15.8342 26.2771C15.7464 26.3007 15.6527 26.3095 15.561 26.3095C15.3242 26.3095 15.12 26.2545 15.12 26.2545C15.12 26.2545 15.5027 25.4449 15.121 24.3127C14.8053 23.3733 14.8566 22.6769 14.8566 22.6769C14.8566 22.6769 14.5024 23.212 13.6214 23.2169H13.6126C12.8796 23.2169 12.5599 22.6631 12.5599 22.6631C14.316 21.9362 14.1433 19.5891 14.1433 19.5891C14.1433 19.5891 13.9154 19.7583 13.4695 19.775C13.4537 19.776 13.4389 19.776 13.4231 19.776C12.4544 19.776 12.1269 18.7422 12.1269 18.7422H12.1466C12.3251 18.7422 13.7625 18.7009 14.7796 17.4113C15.4495 16.5634 15.999 15.8187 17.0812 15.5246L17.1897 15.5059L17.2134 15.3977C17.243 15.2325 17.1305 15.078 16.873 14.9108C15.3775 13.934 16.3936 12.6887 16.3936 12.6887C16.3936 12.6887 16.8188 13.6842 17.7767 13.6842C17.8004 13.6842 17.8221 13.6832 17.8467 13.6832C17.9543 13.6773 18.0608 13.6734 18.1654 13.6507L18.342 13.6163C18.342 13.6163 18.0687 12.8776 18.7277 12.1989C19.2229 11.6864 19.8257 11.5998 20.173 11.5998C20.3496 11.5998 20.4591 11.6224 20.4591 11.6224C20.1296 12.0533 19.8908 12.7674 20.2716 13.2081C20.6011 13.5868 21.4051 13.6055 21.4051 14.1701C21.4051 14.4092 21.1812 14.6885 20.7787 14.9394C19.5682 15.6997 18.3666 16.709 17.8674 18.0595C17.244 19.7455 17.9474 20.864 18.9526 21.5063C18.9526 21.5063 18.6369 21.7955 18.1802 21.8319C18.0874 21.8407 17.9977 21.8447 17.9109 21.8447C16.948 21.8447 16.4498 21.3942 16.4498 21.3942C16.4498 21.3942 16.5327 22.0168 17.0309 22.5952C17.4965 23.1293 18.1032 23.4441 19.0306 23.4569C19.0306 23.4569 19.0602 23.8858 18.6498 24.2566C18.3864 24.4907 17.7806 24.5675 17.7806 24.5675C17.7806 24.5675 18.9171 24.7967 19.0414 26.4689C19.1095 27.3748 19.3393 27.6896 19.3393 27.6896H19.3206Z" fill="#333333"/>
<path id="Vector_30" d="M13.4506 16.9351C13.5778 16.9351 13.7022 16.9164 13.8195 16.8761C14.151 16.7669 14.3612 16.5043 14.5831 16.2318C14.81 15.9524 15.0655 15.6377 15.5085 15.4026L15.9643 15.1586L15.541 14.8625C15.5055 14.8399 15.1879 14.6265 14.7587 14.6265C14.4055 14.6265 14.078 14.7701 13.8087 15.0455C13.1517 15.7144 12.5627 15.7685 12.541 15.7695L12.0823 15.796L12.2707 16.2161C12.4601 16.6322 12.9563 16.9351 13.4506 16.9351ZM14.0346 15.2678C14.2793 15.017 14.5368 14.9422 14.7587 14.9422C15.1001 14.9422 15.3585 15.1232 15.3585 15.1232C14.4351 15.6141 14.2457 16.4 13.7179 16.5771C13.6311 16.6076 13.5404 16.6213 13.4506 16.6213C13.0629 16.6213 12.688 16.3715 12.5598 16.0852C12.5598 16.0843 13.2701 16.041 14.0346 15.2678Z" fill="#333333"/>
<path id="Vector_31" d="M15.5229 20.5992C15.4736 19.4109 15.7794 18.4469 16.2589 17.6531C15.9915 18.4803 16.028 19.4935 16.9376 20.4388C16.9376 20.4388 15.1283 18.2777 17.6578 16.0625C18.67 15.2195 19.7768 14.6991 20.3461 14.3303C18.2872 15.0001 17.2819 14.2624 17.2819 14.2624C17.9389 14.8309 18.7903 14.8211 19.3191 14.7385C19.176 14.8083 19.0261 14.8811 18.8673 14.9667C17.129 15.9081 15.5693 17.4554 15.302 19.5978V19.5811C14.8985 21.6851 14.0007 22.2252 14.0007 22.2252C14.715 21.874 15.1648 20.9415 15.2743 20.6051C15.3937 22.4544 16.2984 23.738 17.3569 24.9735C17.9064 25.6139 18.0997 26.2365 18.0997 26.2365C18.0997 26.2365 17.9922 25.5313 17.5157 24.9568C16.5302 23.7754 15.592 22.3019 15.5229 20.5992Z" fill="#333333"/>
<path id="Vector_32" d="M23.5938 16.2629V16.6878C23.7407 16.5098 24.0249 16.5462 24.0249 16.5462V17.159C24.0249 17.159 24.015 17.46 23.9075 17.5908H24.2153H24.5221C24.4165 17.461 24.4057 17.159 24.4057 17.159V16.5462C24.4057 16.5462 24.6898 16.5098 24.8358 16.6878V16.2629H24.2153H23.5938Z" fill="#333333"/>
<path id="Vector_33" d="M23.3292 13.7425C23.5255 13.8979 23.6389 13.9235 23.6429 13.9265L23.7198 13.9619V13.5615L22.9977 13.2585C22.9977 13.2595 23.0046 13.4907 23.3292 13.7425Z" fill="#333333"/>
<path id="Vector_34" d="M25.0476 13.7425C25.3742 13.4907 25.3801 13.2585 25.3801 13.2585L24.658 13.5615V13.9619L24.7339 13.9265C24.7389 13.9235 24.8513 13.8979 25.0476 13.7425Z" fill="#333333"/>
<path id="Vector_35" d="M26.3475 12.1135C26.3475 11.5066 25.3225 10.9606 24.1909 10.9606H24.1899H24.187H24.184C23.0525 10.9606 22.0275 11.5066 22.0275 12.1135L22.0501 12.263L22.502 14.8491L22.0482 15.1117L20.8742 15.7953H20.8782C20.8782 15.7953 20.6138 15.9301 20.4914 16.0137C20.0445 16.3236 19.9498 16.7751 20.2093 16.962C20.2734 16.5941 20.5654 16.2085 21.112 16.2085C21.5056 16.2085 21.8055 16.4111 22.0482 16.7151C22.1103 16.7918 22.1695 16.8734 22.2248 16.962C22.2928 17.0731 22.3609 17.1705 22.429 17.2649H19.4053C19.6272 17.7105 19.8384 18.1827 19.8384 18.6952V25.3684C19.8384 26.9836 21.0843 27.7548 22.4319 27.7548C23.4737 27.7548 23.6138 27.7075 24.1889 28.2781C24.7611 27.7066 24.9012 27.7548 25.944 27.7548C27.2925 27.7548 28.5366 26.9836 28.5366 25.3684V18.6952C28.5366 18.1827 28.7477 17.7105 28.9706 17.2649H25.9459C26.013 17.1715 26.0811 17.0731 26.1492 16.962C26.2054 16.8734 26.2636 16.7918 26.3248 16.7151C26.5694 16.4101 26.8683 16.2085 27.262 16.2085C27.8085 16.2085 28.0995 16.5931 28.1646 16.962C28.4241 16.7751 28.3304 16.3236 27.8805 16.0137C27.7602 15.9301 27.4958 15.7953 27.4958 15.7953H27.4997L26.3258 15.1117L25.8739 14.8491L26.3258 12.263L26.3475 12.1135ZM22.4724 12.4145L24.0607 12.9516V15.4393L22.8917 14.8245L22.4724 12.4145ZM22.8009 17.6987C23.0613 17.9574 23.3168 18.1178 23.5595 18.2063C23.528 18.3312 23.4865 18.589 23.6039 18.8457C23.6996 19.0523 23.8733 19.2116 24.1228 19.3179C24.1505 19.5736 24.3123 19.9582 24.7611 20.1284C24.5648 20.3261 24.3734 20.512 24.2955 20.5878L22.4753 20.5592C22.4339 20.5386 22.3639 20.4924 22.3323 20.4264C22.3284 20.4176 22.3224 20.4127 22.3195 20.4028L22.6164 20.451C22.6233 20.452 22.6292 20.452 22.6352 20.452C22.6924 20.452 22.7427 20.4127 22.7526 20.3537C22.7624 20.2878 22.718 20.2277 22.6539 20.2179L22.2889 20.1609L22.6944 18.765L22.3106 17.9594L21.695 18.6086L21.6575 20.0605L21.2442 19.9956C21.18 19.9828 21.1189 20.03 21.108 20.094C21.0982 20.1579 21.1416 20.2179 21.2067 20.2297L21.3803 20.2563C21.3181 20.2917 21.2777 20.3192 21.2728 20.3232L21.2373 20.3478L21.2274 20.391C21.1268 20.7983 21.3546 21.1849 21.6003 21.358L21.5914 21.4091C21.5815 21.4721 21.5954 21.5331 21.6328 21.5842C21.6684 21.6364 21.7236 21.6678 21.7848 21.6787C21.7976 21.6806 21.8114 21.6816 21.8232 21.6816C21.9298 21.6816 22.0225 21.6078 22.0492 21.5006C22.1409 21.5114 22.2248 21.5134 22.282 21.5134H22.3303L24.7187 21.9433L24.7592 21.9167C24.9496 21.7839 25.6746 21.2567 25.9124 21.0826C25.9775 21.1386 26.0505 21.1898 26.1393 21.2321C26.0624 21.4898 26.0574 21.8862 26.3623 22.199H20.2754V18.6962C20.2754 18.3568 20.1758 18.0155 20.0584 17.7007H22.8009V17.6987ZM25.7526 20.9035C25.5109 21.0806 24.8894 21.5331 24.6644 21.6905L22.4941 21.3019C22.499 21.2822 22.504 21.2635 22.5089 21.2439C22.5375 21.1317 22.5661 20.9783 22.5681 20.7983L24.3922 20.8278L24.4267 20.7924C24.4543 20.7648 25.0324 20.2081 25.3274 19.8874C25.3974 19.9749 25.4852 20.0586 25.5997 20.1323C25.5602 20.3448 25.577 20.6478 25.7526 20.9035ZM22.1192 20.5287C22.1705 20.636 22.2632 20.7078 22.3274 20.7481C22.3254 20.8484 22.3155 21.0048 22.2889 21.1426C22.283 21.173 22.2751 21.2016 22.2662 21.2301C22.2613 21.2478 22.2563 21.2626 22.2524 21.2744C22.1567 21.2744 21.9683 21.2626 21.8144 21.2065C21.6437 21.1435 21.3892 20.8317 21.4484 20.4884C21.5224 20.4432 21.693 20.3478 21.8528 20.3478C21.9762 20.3468 22.06 20.4048 22.1192 20.5287ZM21.8933 20.0969L21.9298 18.7031L22.2435 18.3716L22.4408 18.7827L22.0521 20.1205L21.8933 20.0969ZM25.7329 27.3229C25.6145 27.3229 25.505 27.3249 25.4063 27.3288L25.6648 26.5271C25.7052 26.416 25.501 26.2734 25.4172 26.1484C25.5444 26.2281 25.8739 26.4022 26.0328 26.4721C26.016 26.4976 25.7329 27.3229 25.7329 27.3229ZM26.5438 26.4121L26.3751 27.2895C26.2675 27.3042 26.1531 27.3121 26.0357 27.317L26.2133 26.473C26.2666 26.2222 25.5908 26.1445 25.2573 25.6517C25.0946 25.8346 24.7878 25.8887 24.48 25.8887C24.1988 25.8887 23.9176 25.8435 23.747 25.81C23.7036 25.8032 23.6621 25.7982 23.6217 25.7982C23.523 25.7982 23.4333 25.8287 23.3711 25.933L23.3218 26.0156L22.4014 25.7992L22.1725 26.177C22.1399 26.2379 22.138 26.2901 22.1902 26.3471L22.2524 26.415C22.21 26.5488 22.0186 26.7504 22.0186 26.7504L21.8815 26.5803C21.7729 26.4593 21.7907 26.2389 21.9041 26.0343L22.2692 25.4195L23.0485 25.5317L22.9272 25.2562C22.7644 24.8923 23.012 24.429 23.0386 24.1624C23.0298 24.2431 22.9558 24.2608 22.869 24.2608C22.79 24.2608 22.7022 24.246 22.644 24.246C22.6213 24.246 22.6016 24.248 22.5908 24.2559L22.3796 24.3837L22.2129 24.2372C22.1932 24.2086 22.1863 24.1427 22.2356 24.0936L22.6213 23.6627L22.1656 23.1325L22.8039 23.4522L22.9982 23.2171C23.0515 23.2692 23.0288 23.406 23.0288 23.406C23.2281 23.4109 23.7864 23.7188 23.816 24.4369C23.818 24.4585 23.818 24.4831 23.818 24.5067C23.818 24.5067 23.8229 24.5155 23.8328 24.5303C23.8723 24.5844 23.9808 24.7231 24.1189 24.7359L25.0008 24.8224H25.0048C25.1015 24.8224 25.2938 24.7093 25.5405 24.7093C25.6746 24.7093 25.8246 24.7438 25.9844 24.8441C25.9844 24.8441 26.0643 24.7811 26.1945 24.7742C26.2044 24.7733 26.2153 24.7733 26.2251 24.7733C26.6207 24.7733 26.7845 25.1294 26.9966 25.4254C27.1564 25.6507 27.3695 25.9851 27.3695 25.9851C27.2906 26.0786 27.2176 26.1297 27.0952 26.1297C27.0617 26.1297 27.0232 26.1268 26.9818 26.1189C26.5576 26.0412 26.4964 25.1716 26.2547 25.1028C26.2419 25.0989 26.2281 25.0979 26.2162 25.0979C26.1383 25.0979 26.1038 25.1667 26.1038 25.1667C26.2143 25.4628 26.1502 25.5828 26.2685 25.811C26.3573 25.9802 26.5152 26.1199 26.5803 26.1858C26.5803 26.1878 26.5625 26.3157 26.5438 26.4121ZM21.8075 25.5818L21.8479 25.6832C21.8213 25.7717 21.5155 25.8976 21.5155 25.8976L21.4494 25.754C21.3793 25.6005 21.3941 25.3418 21.6072 25.1835L22.1024 24.8825L22.6273 24.9936C22.6174 25.1598 22.717 25.2838 22.717 25.2838L22.1666 25.1785L21.8371 25.4058C21.7818 25.4441 21.7779 25.5159 21.8075 25.5818ZM26.6266 27.2413L26.7776 26.4563C26.7855 26.4101 26.7953 26.356 26.8022 26.3107C26.8447 26.3284 26.89 26.3432 26.9394 26.352C26.9956 26.3629 27.0479 26.3678 27.0952 26.3678C27.3261 26.3678 27.4603 26.2468 27.55 26.1435L27.6664 26.0087L27.5717 25.8612C27.5629 25.8464 27.3537 25.5159 27.1919 25.2897C27.1604 25.2454 27.1298 25.2012 27.0992 25.153C26.9157 24.8795 26.6858 24.5362 26.2251 24.5362L26.1837 24.5372C26.1077 24.5421 26.0426 24.5569 25.9903 24.5765C25.8453 24.5087 25.6963 24.4742 25.5415 24.4742C25.3511 24.4742 25.1903 24.5264 25.0837 24.5628C25.0531 24.5716 25.0255 24.5814 25.0038 24.5854L24.1426 24.5008C24.1317 24.4988 24.0962 24.4782 24.0538 24.427V24.4231L24.2402 24.3483C24.188 23.7296 23.5921 23.3489 23.2596 23.2201C23.2448 23.1581 23.2152 23.0961 23.163 23.0459L22.9775 22.8709L22.8147 23.0656L22.7348 23.165L21.5293 22.6712L22.3136 23.6529L22.0038 24.1201C21.8903 24.2401 22.0156 24.3601 22.0156 24.3601L22.3353 24.5795L22.6667 24.4565C22.6786 24.4565 22.6884 24.4595 22.6993 24.4605C22.6835 24.5106 22.6628 24.7074 22.649 24.7624L22.0738 24.6493L21.4691 24.9897C21.1583 25.2169 21.1159 25.5936 21.2313 25.8514L21.2984 25.9979L21.3941 26.2045L21.6052 26.117C21.6082 26.116 21.6111 26.115 21.6131 26.113C21.5372 26.355 21.5677 26.5852 21.7039 26.7367L21.8321 26.898L22.0028 27.1134L22.1902 26.9127C22.2455 26.8577 22.424 26.658 22.4793 26.4868L22.5197 26.356L22.428 26.2556L22.4132 26.2379L22.5158 26.0688L23.2665 26.2448L23.4352 26.2832L23.525 26.1356L23.5743 26.055C23.5832 26.0383 23.5862 26.0353 23.6207 26.0353C23.6473 26.0353 23.674 26.0383 23.7026 26.0442C23.9857 26.0973 24.2471 26.1238 24.479 26.1238C24.7039 26.1238 24.8381 26.115 24.9989 26.0619C24.9989 26.0619 25.4024 26.5183 25.4162 26.536L25.1695 27.2954L25.1587 27.3416C24.6911 27.379 24.4632 27.4813 24.188 27.7557C23.7884 27.3603 23.5053 27.319 22.4309 27.319C21.1455 27.319 20.2744 26.5675 20.2744 25.3674V22.4331H28.0995L28.1015 25.3674C28.1025 26.3412 27.5293 27.02 26.6266 27.2413ZM28.3185 17.6987C28.1992 18.0135 28.0995 18.3548 28.0995 18.6942L28.1005 20.8839C27.6418 20.8071 27.5875 20.3143 27.5855 20.2927L27.5767 20.1923L27.478 20.1835C27.2787 20.1648 27.1465 20.0802 27.0351 19.972C26.8101 19.7477 26.8092 19.3838 26.8101 19.3808C26.8072 19.3995 26.5625 19.7408 26.8466 20.1136C26.966 20.271 27.1387 20.3674 27.3626 20.4058C27.4149 20.6792 27.6191 21.0648 28.1005 21.1239V22.1961H26.747C26.1225 21.8498 26.3869 21.2399 26.3997 21.2144L26.453 21.0983L26.3336 21.053C25.6579 20.8032 25.8433 20.1304 25.8532 20.1018L25.8808 20.0035L25.7891 19.9602C25.2307 19.7025 25.3067 19.007 25.3136 18.9785C25.1419 19.1172 25.0798 19.4005 25.1982 19.6779C25.134 19.7507 25.0482 19.8392 24.9545 19.9356C24.3764 19.789 24.3586 19.2588 24.3586 19.2342L24.3576 19.1526L24.2817 19.1231C24.0558 19.0395 23.9009 18.9146 23.8249 18.7463C23.7391 18.5604 23.7697 18.3657 23.7933 18.2722C23.8594 18.287 23.9255 18.2978 23.9887 18.3027C24.0538 18.3096 24.1209 18.3135 24.188 18.3135H24.1919H24.1968C24.2639 18.3135 24.33 18.3096 24.3951 18.3027C24.7552 18.2673 25.1587 18.1129 25.579 17.6978H28.3185V17.6987ZM26.2093 15.4855L26.744 15.7953H26.7519L26.8861 15.8731C26.5842 15.9567 26.3534 16.1072 26.16 16.3049C26.1531 16.3108 26.1462 16.3187 26.1393 16.3255C26.0949 16.3728 26.0505 16.4239 26.0091 16.476C26.0012 16.4859 25.9933 16.4967 25.9844 16.5075C25.943 16.5606 25.9045 16.6147 25.867 16.6718C25.8611 16.6816 25.8542 16.6915 25.8473 16.7003C25.8029 16.7662 25.7605 16.8371 25.7181 16.9098C25.3373 17.564 24.7296 17.9545 24.1889 17.9555C23.6493 17.9545 23.0416 17.564 22.6608 16.9098C22.6194 16.839 22.5779 16.7702 22.5335 16.7033C22.5247 16.6905 22.5168 16.6777 22.5089 16.6669C22.4714 16.6128 22.4339 16.5597 22.3954 16.5095C22.3856 16.4957 22.3767 16.4849 22.3668 16.4731C22.3254 16.4229 22.283 16.3728 22.2405 16.3265C22.2317 16.3196 22.2258 16.3108 22.2169 16.3029C22.0225 16.1052 21.7927 15.9557 21.4898 15.8731L21.6259 15.7953H21.6319L22.1666 15.4855L22.7161 15.1717L24.184 15.9685L24.187 15.9655L24.1909 15.9685L25.6589 15.1717L26.2093 15.4855ZM25.4852 14.8255L24.3152 15.4402V12.9516L25.9025 12.4145L25.4852 14.8255ZM24.188 12.6781L22.4477 11.9925C22.5957 11.6433 23.2784 11.3462 24.188 11.3452C25.0985 11.3462 25.7812 11.6433 25.9282 11.9925L24.188 12.6781Z" fill="#333333"/>
</g>
</g>
</g>
</svg>
