<svg width="26" height="26" viewBox="0 0 26 26" fill="none" xmlns="http://www.w3.org/2000/svg">
<g id="Iconly/Light/Discount">
<g id="Discount">
<path id="Stroke 1" fill-rule="evenodd" clip-rule="evenodd" d="M4.4328 7.12046C4.4328 5.6354 5.63606 4.43214 7.12112 4.43095H8.34459C9.05442 4.43095 9.73453 4.14916 10.2387 3.64978L11.0936 2.79371C12.1411 1.74026 13.8437 1.7355 14.8971 2.78301L14.8983 2.7842L14.909 2.79371L15.7651 3.64978C16.2692 4.15035 16.9494 4.43095 17.6592 4.43095H18.8815C20.3665 4.43095 21.571 5.63422 21.571 7.12046V8.34156C21.571 9.05139 21.8516 9.73268 22.3521 10.2368L23.2082 11.0929C24.2617 12.1404 24.2676 13.843 23.2201 14.8965L23.2189 14.8977L23.2082 14.9084L22.3521 15.7645C21.8516 16.2674 21.571 16.9475 21.571 17.6573V18.8808C21.571 20.3659 20.3677 21.5691 18.8827 21.5691H18.8815H17.6568C16.947 21.5691 16.2657 21.8509 15.7627 22.3515L14.9067 23.2064C13.8603 24.2598 12.1589 24.2658 11.1054 23.2206C11.1043 23.2194 11.1031 23.2183 11.1019 23.2171L11.0912 23.2064L10.2363 22.3515C9.73334 21.8509 9.05205 21.5703 8.34222 21.5691H7.12112C5.63606 21.5691 4.4328 20.3659 4.4328 18.8808V17.655C4.4328 16.9451 4.15101 16.265 3.65044 15.7621L2.79555 14.906C1.7421 13.8597 1.73616 12.1582 2.78248 11.1048C2.78248 11.1036 2.78366 11.1024 2.78485 11.1012L2.79555 11.0905L3.65044 10.2344C4.15101 9.7303 4.4328 9.0502 4.4328 8.33918V7.12046Z" fill="white"/>
<path id="Stroke 12" d="M4.4328 7.12046C4.4328 5.6354 5.63606 4.43214 7.12112 4.43095H8.34459C9.05442 4.43095 9.73453 4.14916 10.2387 3.64978L11.0936 2.79371C12.1411 1.74026 13.8437 1.7355 14.8971 2.78301L14.8983 2.7842L14.909 2.79371L15.7651 3.64978C16.2692 4.15035 16.9494 4.43095 17.6592 4.43095H18.8815C20.3665 4.43095 21.571 5.63422 21.571 7.12046V8.34156C21.571 9.05139 21.8516 9.73268 22.3521 10.2368L23.2082 11.0929C24.2617 12.1404 24.2676 13.843 23.2201 14.8965L23.2189 14.8977L23.2082 14.9084L22.3521 15.7645C21.8516 16.2674 21.571 16.9475 21.571 17.6573V18.8808C21.571 20.3659 20.3677 21.5691 18.8827 21.5691H18.8815H17.6568C16.947 21.5691 16.2657 21.8509 15.7627 22.3515L14.9067 23.2064C13.8603 24.2598 12.1589 24.2658 11.1054 23.2206C11.1043 23.2194 11.1031 23.2183 11.1019 23.2171L11.0912 23.2064L10.2363 22.3515C9.73334 21.8509 9.05205 21.5703 8.34222 21.5691H7.12112C5.63606 21.5691 4.4328 20.3659 4.4328 18.8808V17.655C4.4328 16.9451 4.15101 16.265 3.65044 15.7621L2.79555 14.906C1.7421 13.8597 1.73616 12.1582 2.78248 11.1048C2.78248 11.1036 2.78366 11.1024 2.78485 11.1012L2.79555 11.0905L3.65044 10.2344C4.15101 9.7303 4.4328 9.0502 4.4328 8.33918V7.12046" stroke="#FF5A00" stroke-width="2.5" stroke-linecap="round" stroke-linejoin="round"/>
<path id="Stroke 3" d="M9.9458 16.0558L16.0572 9.94434" stroke="#FF5A00" stroke-width="2.5" stroke-linecap="round" stroke-linejoin="round"/>
<path id="Stroke 11" d="M15.9666 15.9719H15.9773" stroke="#FF5A00" stroke-width="2.5" stroke-linecap="round" stroke-linejoin="round"/>
<path id="Stroke 11_2" d="M10.0215 10.0261H10.0322" stroke="#FF5A00" stroke-width="2.5" stroke-linecap="round" stroke-linejoin="round"/>
</g>
</g>
</svg>
