<svg width="32" height="20" viewBox="0 0 32 20" fill="none" xmlns="http://www.w3.org/2000/svg">
<path d="M20.3262 2.13892H11.6738V17.8611H20.3262V2.13892Z" fill="#FF5F00"/>
<path d="M12.2232 10C12.2232 6.80556 13.7064 3.97223 15.9862 2.13889C14.3107 0.805559 12.1957 0 9.8884 0C4.42231 0 0 4.47222 0 10C0 15.5278 4.42231 20 9.8884 20C12.1957 20 14.3107 19.1945 15.9862 17.8611C13.7064 16.0556 12.2232 13.1944 12.2232 10Z" fill="#EB001B"/>
<path d="M32 10C32 15.5278 27.5777 20 22.1116 20C19.8043 20 17.6893 19.1945 16.0138 17.8611C18.3211 16.0278 19.7769 13.1944 19.7769 10C19.7769 6.80556 18.2936 3.97223 16.0138 2.13889C17.6893 0.805559 19.8043 0 22.1116 0C27.5777 0 32 4.5 32 10Z" fill="#F79E1B"/>
</svg>