<svg width="80" height="26" viewBox="0 0 80 26" fill="none" xmlns="http://www.w3.org/2000/svg">
<path d="M52.1173 0.000485971C46.4352 0.000485971 41.358 2.95329 41.358 8.41009C41.358 14.6685 50.3611 15.0988 50.3611 18.2435C50.3611 19.5682 48.8488 20.7506 46.2654 20.7506C44.0263 20.7359 41.8254 20.1671 39.858 19.0947L38.6852 24.601C41.0262 25.5271 43.5205 26.0017 46.037 26C52.25 26 57.1482 22.9048 57.1482 17.3521C57.1482 10.7408 48.1049 10.3198 48.1049 7.40416C48.1049 6.36727 49.3395 5.23753 51.9228 5.23753C53.747 5.26197 55.5454 5.67225 57.2006 6.44155L58.3488 1.12404C56.359 0.365441 54.2459 -0.0155507 52.1173 0.000485971ZM0.138893 0.402856L0 1.20452C1.5501 1.50648 3.07045 1.94565 4.54321 2.51687C7.32099 3.51971 7.51235 4.1047 7.9784 5.92157L13.0648 25.5883H19.8858L30.3796 0.402856H23.5895L16.8395 17.5254L14.0833 3.0121C13.8302 1.34999 12.5401 0.402856 10.9969 0.402856H0.138893ZM33.1265 0.402856L27.7901 25.5883H34.2716L39.5895 0.402856H33.108H33.1265ZM69.3117 0.402856C67.7469 0.402856 66.9197 1.24166 66.3117 2.71187L56.8055 25.5883H63.5957L64.9105 21.7751H73.1975L73.9969 25.5883H80L74.7531 0.402856H69.3117ZM70.1975 7.21225L72.213 16.6618H66.8117L70.2068 7.21225H70.1975Z" fill="#1434CB"/>
</svg>
